<!-- Generated by IcoMoon.io -->
<svg version="1.1" xmlns="http://www.w3.org/2000/svg" width="24" height="32" viewBox="0 0 24 32">
    <path d="M9.724 7.609c-0.521-0.521-0.521-1.365 0-1.886v0l5.333-5.333c0.032-0.032 0.064-0.061 0.098-0.088v0l0.048-0.036c0.019-0.014 0.037-0.029 0.057-0.042s0.039-0.024 0.058-0.035c0.018-0.011 0.035-0.022 0.054-0.032v0l0.061-0.029c0.019-0.009 0.038-0.019 0.058-0.027s0.040-0.015 0.060-0.022c0.021-0.008 0.042-0.016 0.063-0.022 0.020-0.006 0.040-0.011 0.061-0.016 0.022-0.006 0.044-0.012 0.066-0.016l0.035-0.006 0.035-0.005c0.020-0.003 0.039-0.006 0.058-0.008 0.088-0.009 0.176-0.009 0.263 0 0.020 0.002 0.039 0.006 0.058 0.008 0.024 0.003 0.047 0.006 0.071 0.011 0.022 0.004 0.044 0.011 0.066 0.016 0.020 0.005 0.041 0.010 0.061 0.016 0.021 0.006 0.042 0.015 0.063 0.022 0.020 0.007 0.040 0.014 0.060 0.022s0.038 0.018 0.058 0.027l0.061 0.029c0.018 0.010 0.036 0.021 0.054 0.032 0.020 0.012 0.039 0.023 0.058 0.035s0.038 0.028 0.057 0.042c0.016 0.012 0.032 0.023 0.048 0.036 0.033 0.027 0.066 0.056 0.096 0.087 0 0 0.001 0.001 0.001 0.001l5.333 5.333c0.521 0.521 0.521 1.365 0 1.886s-1.365 0.521-1.886 0v0l-3.057-3.057v15.448c0 0.736-0.597 1.333-1.333 1.333s-1.333-0.597-1.333-1.333v0-15.448l-3.057 3.057c-0.521 0.521-1.365 0.521-1.886 0zM1.724 26.276c-0.521-0.521-0.521-1.365 0-1.886s1.365-0.521 1.886 0v0l3.057 3.057v-15.448c0-0.736 0.597-1.333 1.333-1.333s1.333 0.597 1.333 1.333v0 15.448l3.057-3.057c0.521-0.521 1.365-0.521 1.886 0s0.521 1.365 0 1.886v0l-5.333 5.333c-0.031 0.031-0.064 0.061-0.098 0.088-0.015 0.013-0.032 0.024-0.048 0.036-0.019 0.014-0.037 0.029-0.057 0.042s-0.039 0.024-0.058 0.035c-0.018 0.011-0.035 0.022-0.054 0.032v0l-0.089 0.043-0.029 0.013c-0.020 0.008-0.040 0.015-0.060 0.022-0.021 0.008-0.042 0.016-0.063 0.022v0l-0.061 0.016c-0.022 0.006-0.044 0.012-0.066 0.016s-0.047 0.007-0.071 0.011c-0.020 0.003-0.039 0.006-0.058 0.008-0.088 0.009-0.176 0.009-0.263 0-0.020-0.002-0.039-0.006-0.058-0.008-0.024-0.003-0.047-0.006-0.071-0.011-0.022-0.004-0.044-0.011-0.066-0.016l-0.030-0.007-0.030-0.008c-0.021-0.006-0.042-0.015-0.063-0.022-0.020-0.007-0.040-0.014-0.060-0.022s-0.039-0.018-0.058-0.027v0l-0.061-0.029c-0.018-0.010-0.036-0.021-0.054-0.032-0.019-0.012-0.039-0.023-0.058-0.035s-0.038-0.028-0.057-0.042v0l-0.047-0.035c-0.034-0.028-0.067-0.057-0.098-0.088v0z"></path>
</svg>
