<svg width="14px" height="16px" viewBox="0 0 16 16" version="1.1" xmlns="http://www.w3.org/2000/svg" xmlns:xlink="http://www.w3.org/1999/xlink">
    <path d="M5.96592891,0 C5.14932748,0 4.47132202,0.649665684 4.40158442,1.45584486 L3.50585947,1.45584486 C2.40714535,1.45584486 1.5,2.36925255 1.5,3.47553961 L1.5,13.9802778 C1.5,15.0865923 2.40714535,16 3.50585947,16 L12.4941406,16 C13.592855,16 14.5,15.0865923 14.5,13.9802778 L14.5,3.47553961 C14.5,2.36925255 13.592855,1.45584486 12.4941406,1.45584486 L11.5970055,1.45584486 C11.5272682,0.649665684 10.8506726,0 10.0340711,0 L5.96592891,0 Z M5.96592891,1.45441551 L10.0340711,1.45441551 C10.1206587,1.45441551 10.166667,1.50224366 10.166667,1.58937885 L10.166667,2.7753795 C10.166667,2.86251469 10.1206614,2.90896847 10.0340711,2.90896847 L5.96592891,2.90896847 C5.8793414,2.90896847 5.83192177,2.86251469 5.83192177,2.7753795 L5.83192177,1.58943383 C5.83192177,1.50229864 5.87933867,1.45447049 5.96592891,1.45447049 L5.96592891,1.45441551 Z M3.50585947,2.91026037 L4.40158442,2.91026037 C4.4719987,3.71575237 5.14980326,4.36467589 5.96592891,4.36467589 L10.0340711,4.36467589 C10.8501968,4.36467589 11.5265904,3.71575237 11.5970055,2.91026037 L12.4941406,2.91026037 C12.8180544,2.91026037 13.0555558,3.14940112 13.0555558,3.47553961 L13.0555558,13.9802778 C13.0555558,14.3064163 12.8180536,14.5455845 12.4941406,14.5455845 L3.50585947,14.5455845 C3.18194615,14.5455845 2.94444455,14.3064437 2.94444455,13.9802778 L2.94444455,3.47553961 C2.94444455,3.14937363 3.1819467,2.91026037 3.50585947,2.91026037 Z M5.0377606,5.8190914 C4.09702139,5.88918438 4.16961693,7.30154411 5.11252049,7.27350692 L10.8860681,7.27350692 C11.8708689,7.29549687 11.8708689,5.79685406 10.8860681,5.8190914 L5.11252185,5.8190914 C5.08762737,5.81779949 5.06266464,5.81779949 5.03776196,5.8190914 L5.0377606,5.8190914 Z M5.04057214,8.72792243 C5.03963396,8.7284172 5.0386966,8.72888449 5.0377606,8.72937926 C4.09702139,8.79947224 4.16961693,10.211832 5.11252049,10.1837948 L10.8860681,10.1837948 C11.8708689,10.2057847 11.8708689,8.70714192 10.8860681,8.72937926 L5.11252185,8.72937926 C5.08858275,8.72770253 5.06456994,8.72720776 5.0405817,8.72792243 L5.04057214,8.72792243 Z M5.0377606,11.6381553 C4.09616291,11.7074237 4.16884116,13.1214601 5.11252049,13.0925708 L10.8860681,13.0925708 C11.8284871,13.0733296 11.8284871,11.6586335 10.8860681,11.6381553 L5.11252185,11.6381553 C5.08762737,11.6368634 5.06266464,11.6368634 5.03776196,11.6381553 L5.0377606,11.6381553 Z" id="assignment"></path>
</svg>