
<svg width="16px" height="16px" viewBox="0 0 16 16" version="1.1" xmlns="http://www.w3.org/2000/svg" xmlns:xlink="http://www.w3.org/1999/xlink">
    <path d="M8,0 C3.58125,0 0,3.58125 0,8 L0,15.5 C0,15.7770833 0.222916667,16 0.5,16 L4.33333333,16 C5.06875,16 5.66666667,15.4020833 5.66666667,14.6666667 L5.66666667,10.3333333 C5.66666667,9.59791667 5.06875,9 4.33333333,9 L1.5,9 L1.5,8 C1.5,4.41041667 4.41041667,1.5 8,1.5 C11.5895833,1.5 14.5,4.41041667 14.5,8 L14.5,9 L11.6666667,9 C10.93125,9 10.3333333,9.59791667 10.3333333,10.3333333 L10.3333333,14.6666667 C10.3333333,15.4020833 10.93125,16 11.6666667,16 L15.5,16 C15.7770833,16 16,15.7770833 16,15.5 L16,8 C16,3.58125 12.41875,0 8,0 Z M4.16666667,10.5 L4.16666667,14.5 L1.5,14.5 L1.5,10.5 L4.16666667,10.5 Z M14.5,14.5 L11.8333333,14.5 L11.8333333,10.5 L14.5,10.5 L14.5,14.5 Z"></path>
</svg>