<!-- Generated by IcoMoon.io -->
<svg version="1.1" xmlns="http://www.w3.org/2000/svg" width="512" height="512" viewBox="0 0 512 512">
<path d="M433.296 0h-354.986c-43.234 0.247-78.187 35.3-78.309 78.535v354.986c0.125 43.285 35.249 78.31 78.535 78.31h354.761c43.235-0.123 78.288-35.075 78.535-78.31v-354.986c-0.124-43.322-35.212-78.411-78.535-78.535zM373.041 303.533c-1.808 3.716-5.572 6.079-9.704 6.093h-49.197v54.387c-0.12 5.933-4.9 10.713-10.832 10.832h-94.332c-5.982 0-10.833-4.85-10.833-10.832v-54.387h-49.874c-4.117-0.067-7.856-2.414-9.703-6.093-2.167-3.45-2.167-7.834 0-11.284l107.647-150.751c3.041-4.861 9.446-6.337 14.306-3.297 1.335 0.834 2.462 1.963 3.296 3.297l107.647 150.751c2.673 3.135 3.289 7.536 1.579 11.284z"></path>
</svg>
