<svg width="16px" height="16px" viewBox="0 0 16 16" version="1.1" xmlns="http://www.w3.org/2000/svg" xmlns:xlink="http://www.w3.org/1999/xlink">
    <path d="M8,0 C12.4114687,0 16,3.58853125 16,8 C16,12.4114688 12.4114688,16 8,16 C3.58853125,16 0,12.4114688 0,8 C0,3.58853125 3.58853125,0 8,0 Z M8,1.23934375 C4.27265625,1.23934375 1.23934375,4.27265625 1.23934375,8 C1.23934375,11.7273437 4.27265625,14.7606563 8,14.7606563 C11.7273437,14.7606563 14.7606563,11.7273437 14.7606563,8 C14.7606563,4.27265625 11.7279688,1.23934375 8,1.23934375 Z M7.99996875,3.71184375 C8.34265625,3.71184375 8.61965625,3.98884375 8.61965625,4.33153125 L8.61965625,4.33153125 L8.61965625,7.73971875 L10.8505,9.41284375 C11.1244063,9.61796875 11.1801875,10.0065 10.9744063,10.2798125 C10.8529375,10.4434062 10.6670313,10.5283125 10.4780313,10.5283125 C10.3485313,10.5283125 10.218375,10.4880312 10.1068438,10.404375 L10.1068438,10.404375 L7.62815625,8.54534375 C7.472,8.42884375 7.38028125,8.24478125 7.38028125,8.04959375 L7.38028125,8.04959375 L7.38028125,4.33153125 C7.38028125,3.98884375 7.65728125,3.71184375 7.99996875,3.71184375 Z" id="clock"></path>
</svg>