<!-- Generated by IcoMoon.io -->
<svg version="1.1" xmlns="http://www.w3.org/2000/svg" width="512" height="512" viewBox="0 0 512 512">
<path d="M197.332 213.332c20.59 0 37.336 16.746 37.336 37.336v224c0 20.586-16.746 37.332-37.336 37.332h-160c-20.586 0-37.332-16.746-37.332-37.332v-224c0-20.59 16.746-37.336 37.332-37.336h160zM474.668 341.332c20.586 0 37.332 16.746 37.332 37.336v96c0 20.586-16.746 37.332-37.332 37.332h-160c-20.59 0-37.336-16.746-37.336-37.332v-96c0-20.59 16.746-37.336 37.336-37.336h160zM197.332 245.332h-160c-2.941 0-5.332 2.391-5.332 5.336v224c0 2.942 2.391 5.332 5.332 5.332h160c2.946 0 5.336-2.39 5.336-5.332v-224c0-2.946-2.391-5.336-5.336-5.336zM474.668 373.332h-160c-2.945 0-5.336 2.39-5.336 5.336v96c0 2.942 2.39 5.332 5.336 5.332h160c2.942 0 5.332-2.39 5.332-5.332v-96c0-2.945-2.39-5.336-5.332-5.336zM474.668 0c20.586 0 37.332 16.746 37.332 37.332v224c0 20.59-16.746 37.336-37.332 37.336h-160c-20.59 0-37.336-16.746-37.336-37.336v-224c0-20.586 16.746-37.332 37.336-37.332h160zM474.668 32h-160c-2.945 0-5.336 2.391-5.336 5.332v224c0 2.945 2.39 5.336 5.336 5.336h160c2.942 0 5.332-2.39 5.332-5.336v-224c0-2.941-2.39-5.332-5.332-5.332zM197.332 0c20.59 0 37.336 16.746 37.336 37.332v96c0 20.59-16.746 37.336-37.336 37.336h-160c-20.586 0-37.332-16.746-37.332-37.336v-96c0-20.586 16.746-37.332 37.332-37.332h160zM197.332 32h-160c-2.941 0-5.332 2.391-5.332 5.332v96c0 2.946 2.391 5.336 5.332 5.336h160c2.946 0 5.336-2.391 5.336-5.336v-96c0-2.941-2.391-5.332-5.336-5.332z"></path>
</svg>
