<!-- Generated by IcoMoon.io -->
<svg version="1.1" xmlns="http://www.w3.org/2000/svg" width="512" height="512" viewBox="0 0 512 512">
<path d="M114.741 368.975c7.811-7.811 20.474-7.811 28.284 0 7.811 7.811 7.811 20.474 0 28.284v0l-74.741 74.741h1.658c11.046 0 20 8.954 20 20s-8.954 20-20 20v0h-49.942c-11.182 0-20-9.172-20-20v0-49.942c0-11.046 8.954-20 20-20s20 8.954 20 20v0 1.658zM368.975 368.975c7.811-7.81 20.474-7.811 28.284 0v0l74.741 74.741v-1.658c0-11.046 8.954-20 20-20s20 8.954 20 20v0 49.942c0 10.849-8.823 20-20 20v0h-49.942c-11.046 0-20-8.954-20-20s8.954-20 20-20v0h1.658l-74.741-74.741c-7.811-7.811-7.811-20.474 0-28.284zM256 136c66.168 0 120 53.832 120 120s-53.832 120-120 120c-66.168 0-120-53.832-120-120s53.832-120 120-120zM256 176c-44.112 0-80 35.888-80 80s35.888 80 80 80c44.112 0 80-35.888 80-80s-35.888-80-80-80zM69.942 0c11.046 0 20 8.954 20 20s-8.954 20-20 20v0h-1.658l74.741 74.741c7.811 7.811 7.811 20.474 0 28.284-7.81 7.81-20.473 7.811-28.284 0v0l-74.741-74.741v1.658c0 11.046-8.954 20-20 20s-20-8.954-20-20v0-49.942c0-10.994 8.981-20 20-20v0zM492 0c11.118 0 20 9.070 20 20v0 49.942c0 11.046-8.954 20-20 20s-20-8.954-20-20v0-1.658l-74.741 74.741c-7.81 7.81-20.473 7.811-28.284 0s-7.811-20.474 0-28.284v0l74.741-74.741h-1.658c-11.046 0-20-8.954-20-20s8.954-20 20-20v0z"></path>
</svg>
