<!-- Generated by IcoMoon.io -->
<svg version="1.1" xmlns="http://www.w3.org/2000/svg" width="512" height="512" viewBox="0 0 512 512">
<path d="M256 93.091c12.853 0 23.273 10.419 23.273 23.272s-10.42 23.273-23.273 23.273v0h-209.454v325.819h325.817v-209.455c0-12.853 10.42-23.273 23.273-23.273s23.274 10.42 23.274 23.273v0 232.727c0 12.853-10.42 23.273-23.273 23.273v0h-372.363c-12.853 0-23.273-10.42-23.273-23.272v0-372.364c0-12.853 10.42-23.273 23.273-23.273v0zM488.726 0c12.853 0 23.274 10.42 23.274 23.273v0 186.182c0 12.853-10.42 23.273-23.273 23.273s-23.273-10.42-23.273-23.273v0-129.997l-239.543 239.543c-4.544 4.546-10.501 6.817-16.457 6.817s-11.912-2.272-16.455-6.816c-9.089-9.089-9.089-23.823 0-32.912v0l239.542-239.544h-129.996c-12.853 0-23.273-10.42-23.273-23.273s10.42-23.273 23.273-23.273v0z"></path>
</svg>
