<!-- Generated by IcoMoon.io -->
<svg version="1.1" xmlns="http://www.w3.org/2000/svg" width="512" height="512" viewBox="0 0 512 512">
<path d="M18.206 3.124c4.167-4.165 10.919-4.165 15.086 0v0l475.58 475.582c4.167 4.166 4.167 10.92 0.001 15.085v0l-15.081 15.082c-4.167 4.165-10.919 4.165-15.086 0v0l-94.161-94.161c-39.136 21.739-82.965 33.288-128.546 33.288-116.532 0-219.209-75.844-255.49-188.74-0.677-2.115-0.677-4.406 0-6.521 16.869-52.478 48.707-97.912 90.823-131.24v0l-88.207-88.208c-4.167-4.166-4.167-10.92 0-15.085v0zM136.525 166.691c-19.2 25.628-29.859 56.895-29.859 89.309 0 82.343 66.989 149.333 149.333 149.333 32.414 0 63.679-10.659 89.307-29.86v0l-46.375-46.375c-12.886 7.675-27.445 12.234-42.932 12.234-47.052 0-85.333-38.281-85.333-85.333 0-15.487 4.558-30.045 12.234-42.932v0zM255.999 63.999c116.532 0 219.209 75.844 255.49 188.74 0.677 2.115 0.677 4.406 0 6.521-13.302 41.386-36.364 79.448-66.677 110.063-2 2.010-4.719 3.146-7.563 3.156 0 0-0.011 0-0.021 0l-2.093-0.207c-2.051-0.41-3.949-1.418-5.449-2.918v0l-36.969-36.969c-3.198-3.198-4.031-8.063-2.083-12.146 9.75-20.375 14.698-41.99 14.698-64.24 0-82.343-66.989-149.333-149.333-149.333-22.25 0-43.865 4.948-64.24 14.698-4.063 1.938-8.948 1.125-12.146-2.083v0l-20.834-20.834c-2.562-2.562-3.656-6.26-2.885-9.802 0.771-3.552 3.292-6.458 6.688-7.729 30.011-11.23 61.438-16.917 93.417-16.917zM256.957 170.75c46.74 0.532 83.761 37.552 84.293 84.292 0.051 4.343-2.532 8.27-6.532 9.958-1.333 0.562-2.739 0.833-4.135 0.833-2.771 0-5.5-1.083-7.542-3.125v0l-73.75-73.75c-3.063-3.062-3.969-7.687-2.292-11.677 1.687-4 5.708-6.073 9.958-6.531z"></path>
</svg>
