<!-- Generated by IcoMoon.io -->
<svg version="1.1" xmlns="http://www.w3.org/2000/svg" width="683" height="512" viewBox="0 0 683 512">
<path d="M611.556 56.889c39.224 0 71.111 31.915 71.111 71.111v0 341.334c0 23.524-19.143 42.666-42.667 42.666v0h-597.333c-23.524 0-42.666-19.142-42.666-42.666v0-256c0-39.196 31.915-71.111 71.111-71.111v0h142.222c15.303 0 30.436-5.064 42.666-14.222v0l68.267-51.2c17.094-12.828 38.315-19.91 59.733-19.91v0zM246.642 0c19.002 0 36.864 7.396 50.291 20.822v0l24.349 24.348c-4.808 2.73-9.615 5.547-14.052 8.874v0l-68.324 51.2c-7.31 5.519-16.413 8.534-25.572 8.534v0h-142.221c-15.332 0-29.696 3.782-42.666 9.984v0-52.651c0-39.196 31.915-71.111 71.111-71.111v0z"></path>
</svg>
