
<svg width="16px" height="16px" viewBox="0 0 16 16" version="1.1" xmlns="http://www.w3.org/2000/svg" xmlns:xlink="http://www.w3.org/1999/xlink">
    <path d="M13.2275508,0 C14.7558713,0 16,1.21338173 16,2.7046012 L16,2.7046012 L16,8.57197096 C16,8.73765638 15.8656854,8.87197096 15.7,8.87197096 L15.7,8.87197096 L15.1206039,8.87197096 C14.9549185,8.87197096 14.8206039,8.73765638 14.8206039,8.57197096 L14.8206039,8.57197096 L14.82,4.228 L1.179,4.228 L1.1793961,13.2953988 C1.17939608,14.0929832 1.8159429,14.7491537 2.6275088,14.8195998 L2.77244918,14.8258609 L7.33844483,14.8258609 C7.50413026,14.8258609 7.63844483,14.9601755 7.63844483,15.1258609 L7.63844483,15.1258609 L7.63844483,15.7 C7.63844483,15.8656854 7.50413026,16 7.33844483,16 L7.33844483,16 L2.77244918,16 C1.24254983,16 0,14.7866183 0,13.2969685 L0,13.2969685 L0,2.7046012 C0,1.21338173 1.24412868,0.00156969546 2.77244918,0 L2.77244918,0 Z M8.01109465,7.19430398 C7.95306208,6.88814772 8.12854147,6.7684066 8.4007418,6.92760786 L8.4007418,6.92760786 L15.81371,11.2709447 C16.0845286,11.4287852 16.056894,11.6192825 15.7515323,11.6941207 C15.7515323,11.6941207 14.2551213,12.0587868 13.1953363,12.4914876 L13.1953363,12.4914876 L14.8672266,14.9434591 C14.9708562,15.0944962 14.9307861,15.3013217 14.7787961,15.4047345 L14.7787961,15.4047345 L13.9898297,15.9422088 C13.8392214,16.0456216 13.6319622,16.0061615 13.5297144,15.8564851 L13.5297144,15.8564851 L11.8550606,13.4004315 C11.0287876,14.2685546 10.0215082,15.6904804 10.0215082,15.6904804 C9.84050188,15.9449302 9.64567831,15.9027487 9.58764575,15.5965925 L9.58764575,15.5965925 Z M2.77244918,1.1725694 C1.89303335,1.1725694 1.1793961,1.85853036 1.1793961,2.70303149 L1.1793961,2.70303149 L1.179,3.085 L3.428,3.085 L3.428,1.172 Z M4.571,1.172 L4.571,3.085 L14.82,3.085 L14.8206039,2.7046012 C14.8206039,1.90849929 14.1840571,1.25101104 13.3738212,1.18041389 L13.2291297,1.17413911 L4.571,1.172 Z"></path>
</svg>