<!-- Generated by IcoMoon.io -->
<svg version="1.1" xmlns="http://www.w3.org/2000/svg" width="512" height="512" viewBox="0 0 512 512">
<path d="M465.685 0h-419.371c-25.578 0-46.315 20.736-46.315 46.315v419.37c0 25.58 20.736 46.316 46.315 46.316h419.37c25.58 0 46.316-20.736 46.316-46.316v-419.37c0-25.578-20.736-46.315-46.315-46.315zM160 435.099c0 7.125-6.869 12.901-15.344 12.901h-65.313c-8.475 0-15.343-5.776-15.343-12.901v-230.199c0-7.125 6.869-12.9 15.343-12.9h65.313c8.475 0 15.344 5.775 15.344 12.9v230.199zM112 160c-26.51 0-48-21.49-48-48s21.49-48 48-48c26.51 0 48 21.49 48 48s-21.489 48-48 48zM448 436.315c0 6.453-5.425 11.685-12.116 11.685h-60.192c-6.691 0-12.116-5.232-12.116-11.685v-106.372c0-15.868 4.826-69.536-42.998-69.536-37.096 0-44.62 36.733-46.131 53.219v122.688c0 6.453-5.423 11.685-12.116 11.685h-58.215c-6.691 0-12.116-5.232-12.116-11.685v-228.825c0-6.453 5.425-11.685 12.116-11.685h58.216c6.691 0 12.116 5.232 12.116 11.685v19.785c13.755-19.909 34.197-35.275 77.722-35.275 96.382 0 95.831 86.843 95.831 134.559v109.756z"></path>
</svg>
