<!-- Generated by IcoMoon.io -->
<svg version="1.1" xmlns="http://www.w3.org/2000/svg" width="512" height="512" viewBox="0 0 512 512">
<path d="M110.481 210.162v68.982c0 11.444-9.299 20.757-20.757 20.757h-68.968c-11.457 0-20.757-9.313-20.757-20.757v-68.981c0-11.471 9.299-20.757 20.757-20.757h68.968c11.457 0 20.757 9.313 20.757 20.757zM481.446 189.405h-308.363c-11.444 0-20.757 9.285-20.757 20.757v68.982c0 11.444 9.313 20.757 20.757 20.757h308.376c11.457 0 20.757-9.313 20.757-20.757v-68.981c-0.014-11.444-9.299-20.757-20.77-20.757zM89.725 32h-68.968c-11.457 0-20.757 9.285-20.757 20.757v68.981c0 11.472 9.299 20.757 20.757 20.757h68.968c11.457 0 20.757-9.285 20.757-20.757v-68.981c0-11.444-9.299-20.757-20.757-20.757zM481.446 32h-308.363c-11.444 0-20.757 9.285-20.757 20.757v68.981c0 11.472 9.313 20.757 20.757 20.757h308.376c11.457 0 20.757-9.285 20.757-20.757v-68.981c-0.014-11.444-9.299-20.757-20.77-20.757zM89.725 346.825h-68.968c-11.457 0-20.757 9.285-20.757 20.757v68.968c0 11.486 9.299 20.757 20.757 20.757h68.968c11.457 0 20.757-9.272 20.757-20.757v-68.968c0-11.471-9.299-20.757-20.757-20.757zM481.446 346.825h-308.363c-11.444 0-20.757 9.285-20.757 20.757v68.968c0 11.486 9.313 20.757 20.757 20.757h308.376c11.457 0 20.757-9.272 20.757-20.757v-68.968c-0.014-11.471-9.299-20.757-20.77-20.757z"></path>
</svg>
