<svg width="11px" height="16px" viewBox="0 0 11 16" version="1.1" xmlns="http://www.w3.org/2000/svg" xmlns:xlink="http://www.w3.org/1999/xlink">
    <path d="M8.33333333,0 C10.6858667,0 12.6,2.0432 12.6,4.55413333 L12.6,4.55413333 L12.6,7.5648 C13.2192,7.7856 13.6666667,8.37226667 13.6666667,9.06666667 L13.6666667,9.06666667 L13.6666667,14.4 C13.6666667,15.2821333 12.9488,16 12.0666667,16 L12.0666667,16 L4.6,16 C3.71786667,16 3,15.2821333 3,14.4 L3,14.4 L3,9.06666667 C3,8.37226667 3.44746667,7.7856 4.06666667,7.56533333 L4.06666667,7.56533333 L4.06666667,4.55413333 C4.06666667,2.0432 5.9808,0 8.33333333,0 Z M12.0666667,8.53333333 L4.6,8.53333333 C4.3056,8.53333333 4.06666667,8.7728 4.06666667,9.06666667 L4.06666667,9.06666667 L4.06666667,14.4 C4.06666667,14.6938667 4.3056,14.9333333 4.6,14.9333333 L4.6,14.9333333 L12.0666667,14.9333333 C12.3610667,14.9333333 12.6,14.6938667 12.6,14.4 L12.6,14.4 L12.6,9.06666667 C12.6,8.7728 12.3610667,8.53333333 12.0666667,8.53333333 L12.0666667,8.53333333 Z M8.33333333,10.1333333 C8.9216,10.1333333 9.4,10.6117333 9.4,11.2 C9.4,11.5930667 9.184,11.9333333 8.86666667,12.1184 L8.86666667,12.1184 L8.86666667,13.3333333 C8.86666667,13.6277333 8.62826667,13.8666667 8.33333333,13.8666667 C8.0384,13.8666667 7.8,13.6277333 7.8,13.3333333 L7.8,13.3333333 L7.8,12.1184 C7.48266667,11.9333333 7.26666667,11.5930667 7.26666667,11.2 C7.26666667,10.6117333 7.74506667,10.1333333 8.33333333,10.1333333 Z M8.33333333,1.06666667 C6.56853333,1.06666667 5.13333333,2.63093333 5.13333333,4.55413333 L5.13333333,4.55413333 L5.13333333,7.46666667 L11.5333333,7.46666667 L11.5333333,4.55413333 C11.5333333,2.63093333 10.0981333,1.06666667 8.33333333,1.06666667 Z" id="lock"></path>
</svg>