<!-- Generated by IcoMoon.io -->
<svg version="1.1" xmlns="http://www.w3.org/2000/svg" width="480" height="512" viewBox="0 0 480 512">
<path  d="M183.694 32.253c17.541-17.541 46.083-17.54 63.622 0v0l169.661 169.661c17.539 17.541 17.539 46.081 0.001 63.62v0c-15.426 15.425-39.417 17.33-56.97 5.479v0l-1.196 0.239c-42.993 8.599-83.252 25.878-118.701 50.697v0l7.206 7.207c17.584 17.584 17.582 46.040 0 63.621v0l-10.604 10.604 31.811 31.811c17.541 17.54 17.541 46.081 0 63.621-17.583 17.584-46.039 17.583-63.621 0v0l-74.226-74.226-10.604 10.604c-17.583 17.583-46.041 17.582-63.622 0v0l-42.414-42.414c-17.585-17.583-17.582-46.039 0-63.622v0l77.819-77.819c44.109-44.108 73.888-99.752 86.12-160.917v0l0.236-1.181c-11.644-17.171-10.286-41.218 5.482-56.985zM173.091 382.172l-21.208 21.207 74.226 74.226c5.846 5.846 15.361 5.846 21.207 0s5.846-15.361 0-21.207v0l-74.225-74.226zM109.469 276.136l-74.225 74.226c-5.861 5.861-5.861 15.345 0 21.207v0l42.414 42.414c5.86 5.861 15.348 5.86 21.208 0.001 0.391-0.392 0.927-0.928 1.593-1.592l72.633-72.633-63.622-63.622zM216.204 340.456c-7.607 6.497-13.224 11.877-17.454 16.063l-4.452 4.446 21.207 21.208 10.604-10.604c5.861-5.862 5.861-15.346 0-21.207v0zM98.865 329.154c5.856-5.856 15.352-5.856 21.207 0s5.856 15.351 0 21.207v0l-21.207 21.207c-5.855 5.856-15.352 5.856-21.207 0-5.856-5.856-5.856-15.351 0-21.207v0zM203.047 115.227c-13.325 51.5-38.231 98.905-73.010 139.064v0l64.898 64.898c40.16-34.78 87.564-59.686 139.064-73.010v0zM226.109 53.46c-5.861-5.861-15.347-5.861-21.208 0s-5.861 15.345 0 21.207v0l169.659 169.659c5.861 5.86 15.346 5.86 21.207 0 5.846-5.848 5.846-15.361 0-21.208v0zM436.157 119.966c8.281 0 14.996 6.714 14.996 14.996s-6.714 14.996-14.996 14.996v0h-29.992c-8.282 0-14.996-6.714-14.996-14.996s6.714-14.996 14.996-14.996v0zM395.562 34.383c5.856-5.856 15.352-5.856 21.207 0s5.856 15.351 0 21.207v0l-29.992 29.992c-5.856 5.857-15.352 5.856-21.207 0s-5.856-15.351 0-21.207v0zM316.19 0c8.282 0 14.996 6.714 14.996 14.996v0 29.992c0 8.282-6.714 14.996-14.996 14.996s-14.996-6.714-14.996-14.996v0-29.992c0-8.282 6.714-14.996 14.996-14.996z"></path>
</svg>
