<!-- Generated by IcoMoon.io -->
<svg version="1.1" xmlns="http://www.w3.org/2000/svg" width="512" height="512" viewBox="0 0 512 512">
<path d="M384 0c10.099 0 18.286 8.187 18.286 18.285v0 109.715h91.428c10.099 0 18.286 8.187 18.286 18.286v0 292.572c0 40.396-32.747 73.143-73.143 73.143v0h-365.714c-40.395 0-73.143-32.747-73.143-73.143v0-420.572c0-10.099 8.187-18.285 18.285-18.285v0zM365.715 36.571h-329.143v402.285c0 20.197 16.373 36.572 36.571 36.572v0h302.391c-1.433-2.493-2.715-5.070-3.84-7.716-0.073-0.165-0.256-0.329-0.256-0.512-1.604-3.925-2.864-7.981-3.767-12.123-0.238-1.023-0.438-2.048-0.622-3.090-0.844-4.327-1.291-8.721-1.335-13.13v0-402.286zM475.428 164.571h-73.143v274.285c0 20.197 16.373 36.571 36.571 36.571s36.571-16.373 36.571-36.571v0h0.001v-274.286zM310.856 402.286c10.099 0 18.286 8.185 18.286 18.285s-8.187 18.286-18.286 18.286v0h-219.429c-10.098 0-18.285-8.185-18.285-18.286 0-10.099 8.187-18.286 18.285-18.286v0zM310.856 329.142c10.099 0 18.286 8.187 18.286 18.286s-8.187 18.286-18.286 18.286v0h-219.429c-10.099 0-18.285-8.187-18.285-18.286s8.187-18.286 18.285-18.286v0zM310.856 256c10.099 0 18.286 8.187 18.286 18.286s-8.187 18.286-18.286 18.286v0h-219.429c-10.099 0-18.285-8.187-18.285-18.286s8.187-18.286 18.285-18.286v0zM310.856 182.857c10.099 0 18.286 8.187 18.286 18.285 0 10.1-8.187 18.286-18.286 18.286v0h-219.429c-10.099 0-18.285-8.187-18.285-18.286s8.187-18.286 18.285-18.286v0zM255.999 91.428c10.1 0 18.287 8.187 18.287 18.285 0 10.1-8.187 18.287-18.286 18.287v0h-109.714c-10.099 0-18.285-8.187-18.285-18.287s8.187-18.285 18.285-18.285v0z"></path>
</svg>
