<!-- Generated by IcoMoon.io -->
<svg version="1.1" xmlns="http://www.w3.org/2000/svg" width="512" height="512" viewBox="0 0 512 512">
<path d="M135.111 0c31.458 0 56.889 25.431 56.889 56.889v0 398.222c0 31.458-25.431 56.889-56.889 56.889v0h-56.889c-31.458 0-56.889-25.431-56.889-56.889v0-398.222c0-31.458 25.431-56.889 56.889-56.889v0zM433.778 0c31.458 0 56.889 25.431 56.889 56.889v0 398.222c0 31.458-25.431 56.889-56.889 56.889v0h-56.889c-31.458 0-56.889-25.431-56.889-56.889v0-398.222c0-31.458 25.431-56.889 56.889-56.889v0z"></path>
</svg>
