<svg width="16px" height="16px" viewBox="0 0 16 16" version="1.1" xmlns="http://www.w3.org/2000/svg" xmlns:xlink="http://www.w3.org/1999/xlink">
    <path d="M6.83433918,1.25186745 C7.26331384,1.25186745 7.61007407,1.59862768 7.61007407,2.02760234 C7.61007407,2.456577 7.26331384,2.80333723 6.83433918,2.80333723 L6.83433918,2.80333723 L2.32723587,2.80333723 C1.89904094,2.80333723 1.55150097,3.150846 1.55150097,3.57907212 L1.55150097,3.57907212 L1.55150097,13.6638129 C1.55150097,14.0920078 1.89900975,14.4395478 2.32723587,14.4395478 L2.32723587,14.4395478 L10.860538,14.4395478 C11.2887329,14.4395478 11.6362729,14.092039 11.6362729,13.6638129 L11.6362729,13.6638129 L11.6362729,11.2271657 C11.6362729,10.798191 11.9830019,10.4514308 12.4120078,10.4514308 C12.8409825,10.4514308 13.1877115,10.798191 13.1877115,11.2271969 L13.1877115,11.2271969 L13.1877115,13.6638129 C13.1877115,14.9476803 12.1435634,15.9910487 10.8604756,15.9910487 L10.8604756,15.9910487 L2.32723587,15.9910487 C1.04414815,15.9910487 1.73194792e-13,14.9469006 1.73194792e-13,13.6638129 L1.73194792e-13,13.6638129 L1.73194792e-13,3.57907212 C1.73194792e-13,2.29598441 1.04414815,1.25186745 2.32723587,1.25186745 L2.32723587,1.25186745 Z M13.0620819,0.290651072 C13.8029162,0.306152047 14.5383548,0.590097466 15.1015361,1.15327875 C16.258152,2.31070565 16.258152,4.19577388 15.1022534,5.35235867 L15.1022534,5.35235867 L9.85740351,10.5972086 C9.08709552,11.3644288 8.06621442,11.7864483 6.9817076,11.7864483 L6.9817076,11.7864483 L5.24403899,11.7864483 C4.81506433,11.7864483 4.46830409,11.4396881 4.46830409,11.0107135 L4.46830409,11.0107135 L4.46830409,9.27304483 C4.46830409,8.1885692 4.89032359,7.16768811 5.65676413,6.39812865 L5.65676413,6.39812865 L10.9086004,1.1462924 C11.4981676,0.555945419 12.2824483,0.273590643 13.0620819,0.290651072 Z M10.2166082,4.03209357 L6.75443275,7.49426901 C6.28123197,7.96902924 6.01980507,8.60204288 6.01980507,9.27307602 L6.01980507,9.27307602 L6.01980507,10.2350097 L6.98176998,10.2350097 C7.65277193,10.2350097 8.28578558,9.97358285 8.76132554,9.49960234 L8.76132554,9.49960234 L12.2226901,6.03817544 L10.2166082,4.03209357 Z M14.0045848,2.25023002 C13.4522573,1.69790253 12.5523899,1.69634308 11.9985029,2.25023002 L11.9985029,2.25023002 L11.3135283,2.93520468 L13.3196101,4.94128655 L14.004616,4.2562807 C14.5569435,3.70317349 14.5569435,2.80330604 14.0045848,2.25023002 Z"></path>
</svg>
