<!-- Generated by IcoMoon.io -->
<svg version="1.1" xmlns="http://www.w3.org/2000/svg" width="512" height="512" viewBox="0 0 512 512">
<path d="M454 188c-24.956 0-46.279 15.844-54.444 38h-55.709c-8.502 0-16.074 5.374-18.88 13.4l-22.685 64.89-65.325-194.652c-2.734-8.148-10.367-13.638-18.961-13.638s-16.227 5.49-18.961 13.637l-65.321 194.65-22.683-64.887c-2.806-8.025-10.378-13.4-18.88-13.4h-72.151c-11.046 0-20 8.954-20 20s8.954 20 20 20h57.956l37.265 106.6c2.821 8.069 10.463 13.485 19.005 13.4 8.548-0.054 16.116-5.534 18.836-13.638l64.936-193.5 64.938 193.501c2.72 8.104 10.288 13.583 18.836 13.637 0.042 0 0.084 0 0.126 0 8.496 0 16.072-5.372 18.879-13.401l37.265-106.599h41.514c8.165 22.156 29.488 38 54.444 38 31.981 0 58-26.018 58-58s-26.019-58-58-58zM454 264c-9.925 0-18-8.075-18-18s8.075-18 18-18c9.925 0 18 8.075 18 18s-8.075 18-18 18z"></path>
</svg>
