
<svg width="16px" height="16px" viewBox="0 0 16 16" version="1.1" xmlns="http://www.w3.org/2000/svg" xmlns:xlink="http://www.w3.org/1999/xlink">
    <path d="M16,7.375 C16,8.79528809 15.5612793,10.1743164 14.7312012,11.362915 C14.5335693,11.6459961 14.1439209,11.71521 13.8609619,11.5175781 C13.5778809,11.3199463 13.508667,10.9302978 13.7062988,10.6473389 C14.3891602,9.66955566 14.75,8.53796388 14.75,7.375 C14.75,3.99768066 11.7219238,1.25 8,1.25 C4.27807619,1.25 1.25,3.99768066 1.25,7.375 C1.25,8.74316406 1.73681641,10.0374756 2.65771484,11.1179199 C2.80883787,11.2950439 2.84875487,11.541626 2.76147462,11.7575684 L1.78137206,14.182251 L4.63586425,12.9238281 C4.79406737,12.854126 4.97412109,12.8530273 5.13317872,12.9208984 C6.03381347,13.3051758 6.998291,13.5 8,13.5 C9.15295409,13.5 10.2906494,13.2316894 11.2901611,12.723999 C11.5979004,12.567749 11.9742432,12.6905517 12.1304932,12.9981689 C12.2867432,13.3060303 12.1639404,13.6821289 11.8562012,13.838501 C10.6821289,14.4348144 9.34863281,14.75 8,14.75 C6.92248534,14.75 5.88024903,14.5565186 4.89770506,14.1745606 L0.87719725,15.9468994 C0.796142562,15.982666 0.710327156,16 0.625122062,16 C0.465820312,16 0.309082031,15.9390869 0.189941406,15.8237305 C0.00732421875,15.6466064 -0.0498046875,15.3765869 0.0455322187,15.1407471 L1.46472169,11.6303711 C0.505126937,10.3829346 -3.91305026e-05,8.91955566 -3.91305026e-05,7.375 C-3.91305026e-05,5.39453125 0.839233406,3.53576659 2.36315919,2.14099122 C3.87158203,0.760375969 5.87353516,0 8,0 C10.1265869,0 12.128418,0.760375969 13.6369629,2.14099122 C15.1607666,3.53576659 16,5.39453125 16,7.375 L16,7.375 Z M8,10.1875 C7.65490722,10.1875 7.375,10.4672852 7.375,10.8125 C7.375,11.1577148 7.65490722,11.4375 8,11.4375 C8.34521484,11.4375 8.625,11.1577148 8.625,10.8125 C8.625,10.4672852 8.34521484,10.1875 8,10.1875 Z M8.62536622,8.07336425 C8.62536622,7.89489747 8.72692872,7.736084 8.88427734,7.66894531 C9.71594238,7.31384278 10.2532959,6.50024413 10.2530518,5.59594725 C10.2530518,5.58715819 10.2528076,5.57836913 10.2524414,5.56958006 C10.2381592,4.33984375 9.23339844,3.34375 8.00036622,3.34375 C6.75842284,3.34375 5.74804688,4.35412597 5.74804688,5.59606934 C5.74804688,5.94128419 6.02783203,6.22106934 6.37304688,6.22106934 C6.71813966,6.22106934 6.99804688,5.94128419 6.99804688,5.59606934 C6.99804688,5.04333497 7.44763184,4.59375 8.00036622,4.59375 C8.5529785,4.59375 9.00268556,5.04345703 9.00268556,5.59606934 C9.00268556,5.60205078 9.00268556,5.60791016 9.00292969,5.61389159 C8.99609375,6.00939941 8.75842284,6.36340331 8.39355469,6.51928712 C7.77502441,6.78332519 7.37536622,7.39331056 7.37536622,8.07336425 L7.37536622,8.625 C7.37536622,8.97021484 7.65515138,9.25 8.00036622,9.25 C8.345459,9.25 8.62536622,8.97021484 8.62536622,8.625 L8.62536622,8.07336425 Z"></path>
</svg>