<svg width="16px" height="16px" viewBox="0 0 16 16" version="1.1" xmlns="http://www.w3.org/2000/svg" xmlns:xlink="http://www.w3.org/1999/xlink">
    <path d="M7.75,11.25 C8.09521484,11.25 8.375,11.5297852 8.375,11.875 C8.375,12.2202148 8.09521484,12.5 7.75,12.5 L6.875,12.5 C6.52978516,12.5 6.25,12.2202148 6.25,11.875 C6.25,11.5297852 6.52978516,11.25 6.875,11.25 L7.75,11.25 Z M12.875,7.90625 C12.875,7.56103516 12.5952148,7.28125 12.25,7.28125 L6.875,7.28125 C6.52978516,7.28125 6.25,7.56103516 6.25,7.90625 C6.25,8.25146484 6.52978516,8.53125 6.875,8.53125 L12.25,8.53125 C12.5952148,8.53125 12.875,8.25146484 12.875,7.90625 Z M6.875,4.78125 L12.25,4.78125 C12.5952148,4.78125 12.875,4.50146484 12.875,4.15625 C12.875,3.81103516 12.5952148,3.53125 12.25,3.53125 L6.875,3.53125 C6.52978516,3.53125 6.25,3.81103516 6.25,4.15625 C6.25,4.50146484 6.52978516,4.78125 6.875,4.78125 Z M4.375,11.25 L3.75,11.25 C3.40478516,11.25 3.125,11.5297852 3.125,11.875 C3.125,12.2202148 3.40478516,12.5 3.75,12.5 L4.375,12.5 C4.72021484,12.5 5,12.2202148 5,11.875 C5,11.5297852 4.72021484,11.25 4.375,11.25 Z M4.375,7.28125 L3.75,7.28125 C3.40478516,7.28125 3.125,7.56103516 3.125,7.90625 C3.125,8.25146484 3.40478516,8.53125 3.75,8.53125 L4.375,8.53125 C4.72021484,8.53125 5,8.25146484 5,7.90625 C5,7.56103516 4.72021484,7.28125 4.375,7.28125 Z M4.375,3.53125 L3.75,3.53125 C3.40478516,3.53125 3.125,3.81103516 3.125,4.15625 C3.125,4.50146484 3.40478516,4.78125 3.75,4.78125 L4.375,4.78125 C4.72021484,4.78125 5,4.50146484 5,4.15625 C5,3.81103516 4.72021484,3.53125 4.375,3.53125 Z M15.8170166,14.9329834 C16.0610352,15.177124 16.0610352,15.572876 15.8170166,15.8168945 C15.6949463,15.9389648 15.5349121,16 15.375,16 C15.2150879,16 15.0550537,15.9389648 14.9329834,15.8170166 L13.8757324,14.7597656 C13.4547119,15.0113525 12.9627686,15.15625 12.4375,15.15625 C10.8867188,15.15625 9.625,13.8945312 9.625,12.34375 C9.625,10.7929688 10.8867188,9.53125 12.4375,9.53125 C13.9882812,9.53125 15.25,10.7929688 15.25,12.34375 C15.25,12.9176025 15.0771484,13.4516602 14.7808838,13.8970947 L15.8170166,14.9329834 Z M12.4375,13.90625 C13.2990723,13.90625 14,13.2053223 14,12.34375 C14,11.4821777 13.2990723,10.78125 12.4375,10.78125 C11.5759277,10.78125 10.875,11.4821777 10.875,12.34375 C10.875,13.2053223 11.5759277,13.90625 12.4375,13.90625 Z M13.5,0 L2.5,0 C1.12145997,0 0,1.12145997 0,2.5 L0,13.5 C0,14.87854 1.12145997,16 2.5,16 L8.9375,16 C9.28271484,16 9.5625,15.7202148 9.5625,15.375 C9.5625,15.0297852 9.28271484,14.75 8.9375,14.75 L2.5,14.75 C1.810791,14.75 1.25,14.189209 1.25,13.5 L1.25,2.5 C1.25,1.810791 1.810791,1.25 2.5,1.25 L13.5,1.25 C14.189209,1.25 14.75,1.810791 14.75,2.5 L14.75,8.6875 C14.75,9.03271484 15.0297852,9.3125 15.375,9.3125 C15.7202148,9.3125 16,9.03271484 16,8.6875 L16,2.5 C16,1.12145997 14.87854,0 13.5,0 Z"></path>
</svg>