<svg width="16px" height="16px" viewBox="0 0 16 16" version="1.1" xmlns="http://www.w3.org/2000/svg" xmlns:xlink="http://www.w3.org/1999/xlink">
    <path d="M8.60131838,6 C8.71801759,6 8.82666016,6.04528809 8.90869141,6.12731934 L8.90869141,6.12731934 L15.1973877,12.4160156 C15.279419,12.4973144 15.3260498,12.609375 15.3260498,12.723999 C15.3260498,12.9639892 15.1313477,13.1586914 14.8913574,13.1586914 L14.8913574,13.1586914 L11.5253906,13.1586914 L8.9140625,15.8666992 C8.82934572,15.9533691 8.71875,15.9993897 8.60131838,15.9993897 C8.36132813,15.9993897 8.16674806,15.8046875 8.16674806,15.5646973 L8.16674806,15.5646973 L8.16674806,6.43469238 C8.16674806,6.19470216 8.36132813,6 8.60131838,6 Z M6.66674806,12 C7.03466797,12 7.33337403,12.2987061 7.33337403,12.666626 C7.33337403,13.034668 7.03466797,13.333374 6.66674806,13.333374 L5.33337403,13.333374 C4.96533203,13.333374 4.66674806,13.034668 4.66674806,12.666626 C4.66674806,12.2987061 4.96533203,12 5.33337403,12 L6.66674806,12 Z M0.666748063,10 C1.03466797,10 1.33337403,10.2987061 1.33337403,10.666626 L1.33337403,11.333374 C1.33337403,11.7006836 1.63269044,12 2,12 L2.66674806,12 C3.03466797,12 3.33337403,12.2987061 3.33337403,12.666626 C3.33337403,13.034668 3.03466797,13.333374 2.66674806,13.333374 L2,13.333374 C0.897338875,13.333374 2.99760217e-14,12.4360352 2.99760217e-14,11.333374 L2.99760217e-14,10.666626 C2.99760217e-14,10.2987061 0.298706063,10 0.666748063,10 Z M0.666748063,4.66662597 C1.03466797,4.66662597 1.33337403,4.96533203 1.33337403,5.33337403 L1.33337403,8 C1.33337403,8.368042 1.03466797,8.66662597 0.666748063,8.66662597 C0.298706063,8.66662597 2.98649994e-14,8.368042 2.98649994e-14,8 L2.98649994e-14,5.33337403 C2.98649994e-14,4.96533203 0.298706063,4.66662597 0.666748063,4.66662597 Z M12.6667481,4.66662597 C13.034668,4.66662597 13.333374,4.96533203 13.333374,5.33337403 L13.333374,6.66662597 C13.333374,7.03466797 13.034668,7.33337403 12.6667481,7.33337403 C12.2987061,7.33337403 12,7.03466797 12,6.66662597 L12,5.33337403 C12,4.96533203 12.2987061,4.66662597 12.6667481,4.66662597 Z M2.66674806,1.33226763e-15 C3.03466797,1.33226763e-15 3.33337403,0.298706063 3.33337403,0.666625969 C3.33337403,1.03466797 3.03466797,1.33337403 2.66674806,1.33337403 L2,1.33337403 C1.63269044,1.33337403 1.33337403,1.63269044 1.33337403,2 L1.33337403,2.66662597 C1.33337403,3.03466797 1.03466797,3.33337403 0.666748063,3.33337403 C0.298706063,3.33337403 2.99760217e-14,3.03466797 2.99760217e-14,2.66662597 L2.99760217e-14,2 C2.99760217e-14,0.897338875 0.897338875,1.33226763e-15 2,1.33226763e-15 L2.66674806,1.33226763e-15 Z M11.333374,1.33226763e-15 C12.4360352,1.33226763e-15 13.333374,0.897338875 13.333374,2 L13.333374,2.66662597 C13.333374,3.03466797 13.034668,3.33337403 12.6667481,3.33337403 C12.2987061,3.33337403 12,3.03466797 12,2.66662597 L12,2 C12,1.63269044 11.7006836,1.33337403 11.333374,1.33337403 L10.6667481,1.33337403 C10.2987061,1.33337403 10,1.03466797 10,0.666625969 C10,0.298706063 10.2987061,1.33226763e-15 10.6667481,1.33226763e-15 L11.333374,1.33226763e-15 Z M8,1.33226763e-15 C8.368042,1.33226763e-15 8.66674806,0.298706063 8.66674806,0.666625969 C8.66674806,1.03466797 8.368042,1.33337403 8,1.33337403 L5.33337403,1.33337403 C4.96533203,1.33337403 4.66674806,1.03466797 4.66674806,0.666625969 C4.66674806,0.298706063 4.96533203,1.33226763e-15 5.33337403,1.33226763e-15 L8,1.33226763e-15 Z"></path>
</svg>