<!-- Generated by IcoMoon.io -->
<svg version="1.1" xmlns="http://www.w3.org/2000/svg" width="512" height="512" viewBox="0 0 512 512">
<path  d="M280.1 0c21.56 0 39.1 17.54 39.1 39.1v0 18.904c11.050 3.53 21.784 7.986 32.096 13.322v0l13.38-13.386c15.253-15.238 40.055-15.239 55.298-0.009v0l34.091 34.090c15.235 15.248 15.235 40.051 0.005 55.294-4.668 4.665-9.506 9.5-13.396 13.389 5.337 10.313 9.791 21.046 13.322 32.096v0h18.904c21.56 0 39.1 17.54 39.1 39.101v0 48.2c0 21.56-17.54 39.1-39.1 39.1v0h-18.903c-3.531 11.050-7.985 21.783-13.322 32.096v0l13.387 13.38c15.239 15.252 15.239 40.055 0.009 55.298v0l-34.091 34.090c-15.248 15.236-40.051 15.234-55.293 0.005v0l-13.39-13.396c-10.312 5.336-21.046 9.792-32.096 13.322v0 18.904c0 21.56-17.54 39.1-39.101 39.1v0h-48.199c-21.561 0-39.101-17.54-39.101-39.1v0-18.904c-11.050-3.53-21.784-7.986-32.096-13.322-1.296 1.296-2.697 2.697-4.161 4.162l-9.219 9.224c-15.254 15.238-40.056 15.239-55.298 0.009v0l-34.091-34.090c-15.235-15.248-15.235-40.051-0.005-55.294v0l13.396-13.389c-5.337-10.313-9.791-21.046-13.322-32.096v0h-18.904c-21.56 0-39.1-17.54-39.1-39.1v0-48.2c0-21.56 17.54-39.1 39.1-39.101v0h18.904c3.531-11.050 7.985-21.783 13.322-32.096v0l-13.387-13.38c-15.239-15.252-15.239-40.055-0.009-55.298v0l34.091-34.090c15.249-15.235 40.052-15.233 55.293-0.005 4.665 4.668 9.5 9.506 13.39 13.396 10.312-5.336 21.046-9.792 32.096-13.322v0-18.904c0-21.56 17.54-39.1 39.1-39.1v0zM280.1 30h-48.2c-5.019 0-9.101 4.082-9.101 9.1v0 30.183c0 6.841-4.628 12.815-11.252 14.524-16.086 4.151-31.505 10.552-45.83 19.024-5.894 3.485-13.401 2.538-18.242-2.304 0 0-11.104-11.104-21.374-21.381-3.543-3.54-9.321-3.539-12.872 0.009v0l-34.081 34.081c-3.544 3.547-3.544 9.326 0.005 12.877 4.668 4.663 9.507 9.501 13.398 13.392l7.974 7.972c4.842 4.842 5.79 12.348 2.305 18.242-8.472 14.328-14.873 29.748-19.024 45.832-1.71 6.623-7.683 11.251-14.524 11.251v0h-30.182c-5.018 0-9.1 4.082-9.1 9.1v0 48.2c0 5.017 4.082 9.1 9.1 9.1v0h30.182c6.84 0 12.814 4.627 14.524 11.251 4.151 16.085 10.551 31.505 19.024 45.832 3.485 5.894 2.537 13.4-2.305 18.242 0 0-11.105 11.104-21.381 21.372-3.54 3.543-3.54 9.322 0.009 12.873v0l34.081 34.081c3.546 3.542 9.325 3.543 12.877-0.005 4.663-4.668 9.501-9.508 13.392-13.399l7.972-7.974c3.508-3.508 10.896-6.65 18.242-2.304 14.325 8.472 29.744 14.872 45.83 19.024 6.624 1.709 11.252 7.683 11.252 14.524v0 30.181c0 5.017 4.082 9.1 9.101 9.1v0h48.2c5.019 0 9.101-4.082 9.101-9.1v0-30.181c0-6.841 4.628-12.815 11.252-14.524 16.086-4.151 31.505-10.552 45.83-19.024 5.892-3.487 13.399-2.538 18.242 2.304 0 0 11.104 11.104 21.374 21.381 3.541 3.539 9.319 3.538 12.872-0.009v0l34.081-34.081c3.544-3.547 3.544-9.326-0.005-12.877-4.668-4.663-9.507-9.502-13.399-13.392l-7.974-7.972c-4.842-4.842-5.79-12.348-2.305-18.242 8.472-14.328 14.873-29.748 19.024-45.832 1.71-6.623 7.683-11.251 14.524-11.251v0h30.182c5.018 0 9.1-4.082 9.1-9.1v0-48.202c0-5.017-4.082-9.1-9.1-9.1v0h-30.182c-6.84 0-12.814-4.627-14.524-11.251-4.151-16.085-10.551-31.505-19.024-45.832-3.485-5.894-2.537-13.4 2.305-18.242 0 0 11.105-11.104 21.381-21.372 3.54-3.543 3.54-9.322-0.009-12.873v0l-34.081-34.081c-3.547-3.543-9.326-3.544-12.877 0.005-4.663 4.668-9.502 9.508-13.392 13.4l-7.972 7.974c-4.842 4.842-12.348 5.79-18.242 2.304-14.325-8.472-29.744-14.872-45.83-19.024-6.624-1.709-11.252-7.683-11.252-14.524v0-30.181c0-5.017-4.082-9.1-9.101-9.1v0zM256 128.533c70.285 0 127.467 57.182 127.467 127.467s-57.182 127.467-127.467 127.467c-70.285 0-127.467-57.182-127.467-127.467s57.182-127.467 127.467-127.467zM256 158.533c-53.743 0-97.467 43.724-97.467 97.467s43.724 97.467 97.467 97.467c53.743 0 97.467-43.724 97.467-97.467s-43.724-97.467-97.467-97.467z"></path>
</svg>
