
<svg width="16px" height="16px" viewBox="0 0 16 16" version="1.1" xmlns="http://www.w3.org/2000/svg" xmlns:xlink="http://www.w3.org/1999/xlink">
    <path d="M14.3880805,16 L1.6129396,16 C0.833986577,16 0.2,15.3771812 0.2,14.6133691 L0.2,2.08091275 C0.2018792,1.31699328 0.832107377,0.696161073 1.6129396,0.696161073 L3.94593288,0.696161073 C4.19242952,0.282255044 4.64204027,0 5.16322147,0 L10.8415033,0 C11.3625772,0 11.812349,0.282255028 12.0587919,0.696161073 L14.3805101,0.696161073 C15.1632215,0.694281873 15.7991409,1.3151141 15.8028993,2.08091275 L15.8028993,14.6133691 C15.7991946,15.3791141 15.1670335,15.9981208 14.3880805,16 Z M10.8358658,1.39785236 L5.15951677,1.39033557 L5.16139597,1.39785236 L5.16139597,2.77508725 L10.837745,2.78271141 L10.8358658,1.39785236 Z M14.3824429,2.08091275 L12.2544966,2.08649665 L12.2544966,2.77508725 C12.2563758,3.5445906 11.6242684,4.1692349 10.8396241,4.1729933 L5.16139597,4.1729933 C4.38061745,4.1729933 3.7464698,3.54459062 3.7464698,2.77508725 L3.7464698,2.08649665 L1.61288591,2.08649665 L1.61852349,14.6133691 L14.3880805,14.6077315 L14.3824429,2.08091275 L14.3824429,2.08091275 Z M5.63366443,8.63785235 L7.01084563,10.1505503 L10.3731007,6.54373154 C10.6365101,6.259651 11.0860671,6.24075168 11.3759463,6.50040269 C11.514446,6.62330911 11.5973683,6.79699221 11.6058622,6.98196787 C11.6143562,7.16694354 11.5477,7.34749516 11.421047,7.48257719 L7.52842952,11.657557 C7.39232226,11.8012341 7.20327819,11.8828518 7.00536912,11.8833825 L6.99973154,11.8833825 C6.79844294,11.8814497 6.60837583,11.7967785 6.47489933,11.6499866 L4.57637584,9.56531544 C4.31484563,9.2794094 4.34120805,8.83914094 4.63280536,8.58324832 C4.92434898,8.3273557 5.37401342,8.35183892 5.63366443,8.63785235 Z"></path>
</svg>