<!-- Generated by IcoMoon.io -->
<svg version="1.1" xmlns="http://www.w3.org/2000/svg" width="512" height="512" viewBox="0 0 512 512">
<path d="M396.106 298.666c11.341 0 21.743 5.021 27.035 13.025 5.284 8.024 4.589 17.704-1.819 25.195v0l-141.832 165.605c-5.077 5.925-13.484 9.478-22.476 9.508-8.982 0.016-17.416-3.489-22.535-9.399v0l-143.702-165.605c-6.475-7.459-7.23-17.185-1.957-25.238 5.273-8.038 15.704-13.091 27.075-13.091v0zM257.014 0c8.992 0.032 17.399 3.58 22.476 9.508v0l141.832 165.603c6.409 7.494 7.103 17.172 1.819 25.196-5.292 8.006-15.694 13.027-27.035 13.027v0h-280.211c-11.371 0-21.802-5.050-27.075-13.090-5.273-8.054-4.52-17.779 1.957-25.24v0l143.702-165.606c5.119-5.91 13.552-9.415 22.534-9.397z"></path>
</svg>
