<!-- Generated by IcoMoon.io -->
<svg version="1.1" xmlns="http://www.w3.org/2000/svg" width="512" height="512" viewBox="0 0 512 512">
<path d="M398.917 184.178c-21.988-34.519-59.995-55.591-101.372-55.591-5.526 0-11.043 0.378-16.5 1.13-22.464-30.924-58.797-49.716-97.366-49.716-65.591 0-119.079 52.811-120.183 118.146-38.914 20.78-63.497 61.257-63.497 106.018 0 66.279 53.922 120.202 120.201 120.202h271.401c66.279 0 120.202-53.923 120.202-120.202 0-63.826-50-116.193-112.888-119.986zM391.603 391.878h-119.457v-140.377l50.24 50.237c6.344 6.344 16.63 6.344 22.973 0s6.343-16.628 0-22.973l-77.969-77.967c-6.343-6.341-16.627-6.343-22.972 0l-77.97 77.969c-6.343 6.344-6.343 16.628 0 22.974 3.172 3.17 7.329 4.756 11.486 4.756s8.314-1.587 11.486-4.756l50.239-50.241v140.377h-119.457c-48.366 0-87.715-39.348-87.715-87.714 0-35.45 21.127-67.218 53.824-80.93 6.452-2.707 10.448-9.239 9.914-16.216-0.171-2.237-0.257-4.528-0.257-6.813 0-48.367 39.348-87.716 87.712-87.716 30.984 0 59.994 16.627 75.71 43.392 3.614 6.155 10.819 9.232 17.769 7.577 6.644-1.582 13.505-2.383 20.387-2.383 32.59 0 62.315 17.915 77.577 46.755 2.873 5.429 8.557 8.8 14.704 8.642 0.592-0.013 1.181-0.026 1.775-0.026 48.367 0 87.714 39.35 87.714 87.719 0 48.367-39.347 87.714-87.712 87.714z"></path>
</svg>
