<!-- Generated by IcoMoon.io -->
<svg version="1.1" xmlns="http://www.w3.org/2000/svg" width="512" height="512" viewBox="0 0 512 512">
<path d="M256 0c82.349 0 149.333 66.984 149.333 149.333 0 41.771-17.291 79.542-45.026 106.667v0h45.026c58.817 0 106.666 47.849 106.666 106.666v0 128c0 11.776-9.558 21.334-21.334 21.334s-21.334-9.558-21.334-21.334v0-128c0-35.297-28.703-64-64-64v0h-298.666c-35.297 0-64 28.703-64 64v0 21.334c0 11.776-9.557 21.334-21.334 21.334s-21.334-9.558-21.334-21.334v0-21.334c0-58.817 47.849-106.666 106.666-106.666v0h45.026c-27.734-27.125-45.026-64.896-45.026-106.666 0-82.349 66.984-149.333 149.333-149.333zM21.334 448c11.776 0 21.334 9.558 21.334 21.334v0 21.334c0 11.776-9.557 21.333-21.334 21.333s-21.334-9.558-21.334-21.334v0-21.334c0-11.776 9.557-21.334 21.334-21.334zM256 42.666c-58.817 0-106.666 47.849-106.666 106.666s47.849 106.667 106.666 106.667c58.817 0 106.666-47.849 106.666-106.666s-47.849-106.666-106.666-106.666z"></path>
</svg>
