<!-- Generated by IcoMoon.io -->
<svg version="1.1" xmlns="http://www.w3.org/2000/svg" width="512" height="512" viewBox="0 0 512 512">
<path d="M255.75 277.13c47.078 0 85.248 38.215 85.248 85.242v0 85.254h-340.998v-85.254c0-47.078 38.17-85.242 85.248-85.242v0zM426.252 277.13c47.078 0 85.248 38.215 85.248 85.242v0 85.254h-127.875v-42.621h85.248v-42.633c0-23.516-19.079-42.621-42.621-42.621v0h-42.627v-42.621zM255.75 319.75h-170.502c-23.542 0-42.621 19.105-42.621 42.621v0 42.634h255.75v-42.634c0-23.516-19.085-42.621-42.627-42.621v0zM170.502 64c47.078 0 85.248 38.164 85.248 85.248s-38.172 85.248-85.248 85.248c-47.077 0-85.254-38.17-85.254-85.248s38.176-85.248 85.254-85.248zM340.998 64c47.077 0 85.254 38.17 85.254 85.248s-38.176 85.248-85.254 85.248c-15.525 0-29.909-4.45-42.461-11.738v0l21.227-36.758c6.285 3.644 13.464 5.869 21.227 5.869 23.548 0.006 42.633-19.060 42.633-42.621 0-23.522-19.085-42.627-42.627-42.627-7.761 0-14.961 2.251-21.227 5.87v0l-21.233-36.752c12.551-7.263 26.938-11.739 42.461-11.739zM170.502 106.621c-23.542 0-42.627 19.105-42.627 42.627 0 23.56 19.085 42.627 42.627 42.627s42.621-19.066 42.621-42.627c0-23.522-19.079-42.627-42.621-42.627z"></path>
</svg>
