<!-- Generated by IcoMoon.io -->
<svg version="1.1" xmlns="http://www.w3.org/2000/svg" width="416" height="512" viewBox="0 0 416 512">
<path d="M194.989 0c90.981 0 165 74.019 165 165 0 52.446-24.599 99.253-62.863 129.497v0l78.882 78.883c8.5 8.499 13.18 19.8 13.18 31.82s-4.68 23.319-13.18 31.819c-8.773 8.773-20.296 13.159-31.82 13.159s-23.047-4.386-31.819-13.159v0l-72.38-72.38v102.361c0 24.813-20.187 45-45 45s-45-20.187-45-45v0-102.36l-72.38 72.379c-8.499 8.5-19.799 13.181-31.819 13.181s-23.321-4.681-31.82-13.181c-17.545-17.545-17.545-46.094 0-63.639v0l78.882-78.883c-38.264-30.244-62.863-77.050-62.863-129.497 0-90.981 74.019-165 165-165zM209.989 329.311c-4.942 0.448-9.943 0.689-15 0.689s-10.058-0.241-15-0.689v0 137.689c0 8.271 6.729 15 15 15s15-6.729 15-15v0zM118.575 311.202l-83.391 83.391c-5.848 5.848-5.848 15.364 0 21.213 2.834 2.833 6.6 4.394 10.607 4.394s7.773-1.561 10.606-4.394v0l92.398-92.397c-10.547-3.080-20.657-7.188-30.22-12.207v0zM271.405 311.202c-9.562 5.019-19.673 9.126-30.219 12.207v0l92.397 92.397c5.848 5.848 15.364 5.849 21.213 0 5.848-5.848 5.848-15.365 0-21.213v0zM194.989 30c-74.439 0-135 60.561-135 135s60.561 135 135 135c74.439 0 135-60.561 135-135s-60.561-135-135-135zM194.989 120c24.813 0 45 20.187 45 45s-20.187 45-45 45c-24.813 0-45-20.187-45-45s20.187-45 45-45zM194.989 150c-8.271 0-15 6.729-15 15s6.729 15 15 15c8.271 0 15-6.729 15-15s-6.729-15-15-15zM259.99 80c11.046 0 20 8.954 20 20s-8.954 20-20 20c-11.046 0-20-8.954-20-20s8.954-20 20-20z"></path>
</svg>
