<!-- Generated by IcoMoon.io -->
<svg version="1.1" xmlns="http://www.w3.org/2000/svg" width="512" height="512" viewBox="0 0 512 512">
<path  d="M346 372c8.285 0 15 6.715 15 15v0 110c0 8.285-6.715 15-15 15v0h-180c-8.285 0-15-6.715-15-15v0-110c0-8.285 6.715-15 15-15v0zM331 402h-150v80h150v-80zM115 264c8.285 0 15 6.715 15 15s-6.715 15-15 15v0h-60c-13.785 0-25 11.215-25 25v0 60c0 13.785 11.215 25 25 25v0h23.785l-14.391-14.394c-5.859-5.86-5.859-15.356 0-21.211 5.856-5.86 15.356-5.86 21.211 0v0l40 40c5.86 5.856 5.86 15.356 0 21.211v0l-40 40c-2.926 2.93-6.766 4.394-10.605 4.394s-7.68-1.465-10.606-4.394c-5.859-5.856-5.859-15.356 0-21.211v0l14.391-14.394h-23.785c-30.328 0-55-24.672-55-55v0-60c0-30.328 24.672-55 55-55v0zM346 186c8.285 0 15 6.715 15 15v0 110c0 8.285-6.715 15-15 15v0h-180c-8.285 0-15-6.715-15-15v0-110c0-8.285 6.715-15 15-15v0zM331 216h-150v80h150v-80zM457 78c30.328 0 55 24.672 55 55v0 60c0 30.328-24.672 55-55 55v0h-23.785l14.39 14.394c5.86 5.856 5.86 15.356 0 21.211-2.926 2.93-6.765 4.394-10.606 4.394s-7.68-1.465-10.606-4.394v0l-40-40c-5.86-5.859-5.86-15.356 0-21.211v0l40-40c5.856-5.859 15.356-5.859 21.211 0 5.86 5.856 5.86 15.356 0 21.211v0l-14.39 14.394h23.785c13.785 0 25-11.215 25-25v0-60c0-13.785-11.215-25-25-25v0h-60c-8.285 0-15-6.715-15-15s6.715-15 15-15v0zM346 0c8.285 0 15 6.715 15 15v0 110c0 8.285-6.715 15-15 15v0h-180c-8.285 0-15-6.715-15-15v0-110c0-8.285 6.715-15 15-15v0zM331 30h-150v80h150v-80z"></path>
</svg>
