<svg width="15px" height="16px" viewBox="0 0 15 16" version="1.1" xmlns="http://www.w3.org/2000/svg" xmlns:xlink="http://www.w3.org/1999/xlink">
    <path d="M6.75983678,4.15420962 L9.49798111,1.20383162 C10.1805172,0.45008237 11.1488987,0.0185818131 12.1657474,0.0151030928 C13.1730327,0.0151030928 14.1198368,0.437371134 14.8302148,1.20053265 C16.2872594,2.77304124 16.2872594,5.31104812 14.8302148,6.8835567 L13.5777062,8.23173539 C13.2500086,8.59352233 12.6715894,8.66609965 12.1822423,8.18225085 C11.7687715,7.77207903 11.7324828,7.15737113 12.1217612,6.72850515 L13.3731701,5.38142611 C14.0581687,4.62029871 14.0581687,3.46489029 13.3731701,2.70376289 C13.0640241,2.36206212 12.6254357,2.16611408 12.1646478,2.16383162 C11.7082904,2.16383162 11.2794244,2.35517183 10.9528265,2.70596219 L8.21468214,5.65743987 C7.5603866,6.37991409 7.64176118,7.705 8.37963059,8.52204467 C8.7095275,8.98939861 8.62265464,9.3852749 8.19818729,9.84823024 C7.75282647,10.2814948 7.07213918,10.1803264 6.75763745,9.83723368 C5.30279209,8.26472508 5.30279209,5.72671822 6.75983678,4.15420962 Z M3.46636598,7.61372853 C3.77426976,7.27943299 4.37028351,7.27613402 4.85853093,7.75228523 C5.23901203,8.18994845 5.26760309,8.69579038 4.89262028,9.10596219 L3.6346134,10.5773024 C2.95096614,11.3373647 2.95001786,12.490481 3.63241409,13.2516667 C3.95901203,13.6035567 4.38677835,13.7948969 4.84313574,13.7948969 C5.30279211,13.7937972 5.74265464,13.5969588 6.05715636,13.2516667 L8.79530069,10.300189 C9.46059278,9.56781786 9.40560997,8.27462199 8.68973368,7.48396907 C8.33344502,7.04630585 8.44011169,6.53496564 8.87007732,6.1126976 C9.26815292,5.72451891 9.86196735,5.63434708 10.2512457,6.01592784 C11.7082904,7.58843642 11.7082904,10.2320103 10.2512457,11.8034192 L7.51310137,14.7559966 C6.83042163,15.5103224 5.86160761,15.942237 4.84423539,15.9458247 C3.82908941,15.9413932 2.8625684,15.5104094 2.1808677,14.7581959 C0.72492268,13.1878866 0.722723373,10.6531787 2.17426976,9.0806701 L3.46636598,7.61372853 Z" id="AddLink"></path>
</svg>
