<svg width="16px" height="13px" viewBox="0 0 16 13" version="1.1" xmlns="http://www.w3.org/2000/svg" xmlns:xlink="http://www.w3.org/1999/xlink">
    <path d="M15.4285714,-4.97379915e-14 C15.7446429,-4.97379915e-14 16,0.255357143 16,0.571428571 L16,0.571428571 L16,12 C16,12.3160714 15.7446429,12.5714286 15.4285714,12.5714286 L15.4285714,12.5714286 L0.571428571,12.5714286 C0.255357143,12.5714286 0,12.3160714 0,12 L0,12 L0,0.571428571 C0,0.255357143 0.255357143,-4.97379915e-14 0.571428571,-4.97379915e-14 L0.571428571,-4.97379915e-14 Z M14.5142857,1.28571429 L1.48571429,1.28571429 C1.37525734,1.28571429 1.28571429,1.37525734 1.28571429,1.48571429 L1.28571429,1.48571429 L1.28571429,11.0857143 C1.28571429,11.1961712 1.37525734,11.2857143 1.48571429,11.2857143 L1.48571429,11.2857143 L14.5142857,11.2857143 C14.6247427,11.2857143 14.7142857,11.1961712 14.7142857,11.0857143 L14.7142857,11.0857143 L14.7142857,1.48571429 C14.7142857,1.37525734 14.6247427,1.28571429 14.5142857,1.28571429 L14.5142857,1.28571429 Z M8,8.5 C8.55228475,8.5 9,8.94771525 9,9.5 C9,10.0522847 8.55228475,10.5 8,10.5 C7.44771525,10.5 7,10.0522847 7,9.5 C7,8.94771525 7.44771525,8.5 8,8.5 Z M4,8.5 C4.55228475,8.5 5,8.94771525 5,9.5 C5,10.0522847 4.55228475,10.5 4,10.5 C3.44771525,10.5 3,10.0522847 3,9.5 C3,8.94771525 3.44771525,8.5 4,8.5 Z M12,8.5 C12.5522847,8.5 13,8.94771525 13,9.5 C13,10.0522847 12.5522847,10.5 12,10.5 C11.4477153,10.5 11,10.0522847 11,9.5 C11,8.94771525 11.4477153,8.5 12,8.5 Z" id="Combined-Shape"></path>
</svg>