<?xml version="1.0" encoding="UTF-8"?>
<svg width="16px" height="13px" viewBox="0 0 16 13" version="1.1" xmlns="http://www.w3.org/2000/svg" xmlns:xlink="http://www.w3.org/1999/xlink">
    <path d="M15.4285714,2 L0.571428571,2 C0.255357143,2 0,2.25535714 0,2.57142857 L0,14 C0,14.3160714 0.255357143,14.5714286 0.571428571,14.5714286 L15.4285714,14.5714286 C15.7446429,14.5714286 16,14.3160714 16,14 L16,2.57142857 C16,2.25535714 15.7446429,2 15.4285714,2 Z M14.7142857,13.2857143 L1.28571429,13.2857143 L1.28571429,3.28571429 L14.7142857,3.28571429 L14.7142857,13.2857143 Z M2.94821429,11.8160714 C3.00357143,11.8714286 3.09464286,11.8714286 3.15,11.8160714 L6.23035714,8.73571429 L8.27321429,10.7803571 C8.32857143,10.8357143 8.41964286,10.8357143 8.475,10.7803571 L13.7785714,5.47321429 C13.8339286,5.41785714 13.8339286,5.32678571 13.7785714,5.27142857 L13.1214286,4.61428571 C13.0660714,4.55892857 12.975,4.55892857 12.9196429,4.61428571 L8.375,9.16071429 L6.33214286,7.11607143 C6.27678571,7.06071429 6.18571429,7.06071429 6.13035714,7.11607143 L2.29285714,10.9553571 C2.2375,11.0107143 2.2375,11.1017857 2.29285714,11.1571429 L2.94821429,11.8160714 L2.94821429,11.8160714 Z" id="Path"></path>
</svg>