<!-- Generated by IcoMoon.io -->
<svg version="1.1" xmlns="http://www.w3.org/2000/svg" width="32" height="32" viewBox="0 0 32 32">
    <path d="M15.943 31.955c-7.606-0.003-14.151-5.377-15.633-12.838s2.513-14.928 9.541-17.837c7.028-2.909 15.132-0.448 19.356 5.877s3.392 14.754-1.988 20.131c-2.991 2.99-7.047 4.668-11.276 4.667zM15.943 2.967c-6.224-0.005-11.584 4.386-12.803 10.489s2.043 12.217 7.791 14.603c5.748 2.386 12.381 0.379 15.842-4.793s2.786-12.069-1.612-16.473c-2.439-2.454-5.758-3.831-9.218-3.826zM9.798 23.606c-0.375 0.022-0.744-0.103-1.029-0.348-0.446-0.442-0.557-1.12-0.275-1.681l4.102-8.189c0.147-0.278 0.374-0.505 0.652-0.652l8.189-4.102c0.562-0.294 1.25-0.19 1.698 0.259s0.553 1.136 0.259 1.698l-4.102 8.189c-0.147 0.278-0.374 0.505-0.652 0.652l-8.204 4.029c-0.199 0.096-0.417 0.146-0.638 0.145v0zM14.972 15.040l-1.928 3.87 3.884-1.942 1.913-3.855-3.87 1.928zM24.147 24.215c0.274-0.272 0.429-0.643 0.429-1.029s-0.154-0.757-0.429-1.029l-1.029-1.015c-0.584-0.564-1.516-0.548-2.080 0.036s-0.548 1.516 0.036 2.080l1.015 1.029c0.272 0.274 0.643 0.429 1.029 0.429s0.757-0.154 1.029-0.429v-0.072zM10.813 10.895c0.274-0.272 0.429-0.643 0.429-1.029s-0.154-0.757-0.429-1.029l-1.015-1.029c-0.568-0.568-1.49-0.568-2.058 0s-0.568 1.49 0 2.058l1.029 1.015c0.565 0.562 1.478 0.562 2.044 0v0.014z"></path>
</svg>
