<!-- Generated by IcoMoon.io -->
<svg version="1.1" xmlns="http://www.w3.org/2000/svg" width="512" height="512" viewBox="0 0 512 512">
<path d="M419.84 401.6c16.937 0 30.72 13.783 30.72 30.72s-13.783 30.72-30.72 30.72v0h-327.68c-16.937 0-30.72-13.783-30.72-30.72s13.783-30.72 30.72-30.72v0zM255.999 32.96c28.242 0 51.2 22.958 51.2 51.2 0 23.879-16.507 43.847-38.666 49.459 17.285 76.001 48.62 121.426 87.040 124.559 34.55 3.113 71.517-31.314 95.212-87.429-12.308-7.086-20.705-20.213-20.705-35.389 0-22.589 18.371-40.96 40.96-40.96s40.96 18.371 40.96 40.96c0 21.013-15.974 38.175-36.373 40.509v0l-39.444 205.251h-360.366l-39.445-205.251c-20.398-2.334-36.372-19.496-36.372-40.509 0-22.589 18.371-40.96 40.959-40.96s40.96 18.371 40.96 40.96c0 15.175-8.397 28.303-20.705 35.389 23.674 56.115 60.805 90.542 95.211 87.429 38.42-3.133 69.755-48.558 87.040-124.559-22.159-5.611-38.666-25.579-38.666-49.459 0-28.242 22.958-51.2 51.2-51.2z"></path>
</svg>
