<svg width="16px" height="16px" viewBox="0 0 16 16" version="1.1" xmlns="http://www.w3.org/2000/svg" xmlns:xlink="http://www.w3.org/1999/xlink">
    <path d="M15.3333437,11.3333437 C15.7015312,11.3333437 15.9999687,11.6318125 15.9999687,12 L15.9999687,12 L15.9999687,15.3333437 C15.9999687,15.7015312 15.7015,16 15.3333125,16 L15.3333125,16 L0.66665625,16 C0.29846875,16 -1.77635684e-14,15.7015312 -1.77635684e-14,15.3333437 L-1.77635684e-14,15.3333437 L-1.77635684e-14,12 C-1.77635684e-14,11.6318125 0.29846875,11.3333437 0.6666875,11.3333437 C1.034875,11.3333437 1.33334375,11.6318125 1.33334375,12 L1.33334375,12 L1.33334375,14.6666562 L14.6666875,14.6666562 L14.6666875,12 C14.6666875,11.6318125 14.9651562,11.3333437 15.3333437,11.3333437 Z M8,-3.99680289e-14 C8.3681875,-3.99680289e-14 8.66665625,0.29846875 8.66659375,0.66665625 L8.66659375,0.66665625 L8.66659375,9.72384375 L10.8618437,7.52859375 C11.1221875,7.26825 11.5443125,7.26825 11.8046562,7.52859375 C12.065,7.7889375 12.065,8.2110625 11.8046562,8.47140625 L11.8046562,8.47140625 L8.47096484,11.8050781 L8.47096484,11.8050781 L8.44705859,11.8277422 L8.44705859,11.8277422 L8.42246875,11.8489062 L8.42246875,11.8489062 L8.39859375,11.86675 C8.38915625,11.8738125 8.37990625,11.881125 8.3700625,11.8877187 L8.3700625,11.8877187 L8.3409375,11.9054062 L8.3409375,11.9054062 L8.31415625,11.9212187 C8.30421875,11.9265625 8.29396875,11.9310625 8.2838125,11.9358437 L8.2838125,11.9358437 L8.25503125,11.9492187 C8.2451875,11.9532812 8.235125,11.9565625 8.225125,11.9601562 C8.214625,11.9639375 8.20421875,11.9679687 8.19346875,11.9712187 C8.18346875,11.97425 8.1733125,11.9764687 8.1631875,11.979 C8.15221875,11.9817812 8.14140625,11.9848437 8.13021875,11.9870625 C8.11853125,11.9894062 8.1066875,11.9907812 8.09490625,11.9924687 C8.08515625,11.993875 8.07559375,11.9957187 8.06575,11.9966875 C8.022,12.001 7.97790625,12.001 7.93415625,11.9966875 L7.93415625,11.9966875 L7.905,11.9924687 C7.89321875,11.99075 7.88140625,11.989375 7.8696875,11.9870625 C7.85853125,11.9848437 7.8476875,11.9817812 7.83671875,11.979 C7.826625,11.9764687 7.8164375,11.97425 7.8064375,11.9712187 C7.7956875,11.9679687 7.7853125,11.9639375 7.77478125,11.9601562 C7.76478125,11.9565937 7.75471875,11.9532812 7.744875,11.9492187 L7.744875,11.9492187 L7.71609375,11.9358437 C7.7059375,11.9310625 7.6956875,11.9265312 7.68575,11.9212187 C7.67659375,11.9163125 7.667875,11.9107187 7.65896875,11.9054062 C7.64921875,11.8995937 7.63934375,11.8940937 7.62984375,11.8877187 C7.62,11.8811562 7.61075,11.8738125 7.6013125,11.86675 L7.6013125,11.86675 L7.5774375,11.8489062 C7.5606875,11.8351562 7.544625,11.8206562 7.5293125,11.8054062 C7.52909375,11.8051875 7.52884375,11.805 7.52859375,11.80475 L7.52859375,11.80475 L4.19528125,8.47140625 C3.9349375,8.2110625 3.9349375,7.7889375 4.19528125,7.52859375 C4.455625,7.26825 4.87775,7.26825 5.13809375,7.52859375 L5.13809375,7.52859375 L7.33334375,9.72384375 L7.33334375,0.66665625 C7.33334375,0.29846875 7.6318125,-3.99680289e-14 8,-3.99680289e-14 Z"></path>
</svg>
