<!-- Generated by IcoMoon.io -->
<svg version="1.1" xmlns="http://www.w3.org/2000/svg" width="512" height="512" viewBox="0 0 512 512">
<path d="M450.191 49.264h-389.561c-33.431 0-60.63 26.12-60.63 58.225v271.53c0 32.105 27.199 58.225 60.63 58.225h389.561c33.431 0 60.628-26.12 60.628-58.225v-271.53c0-32.105-27.197-58.225-60.629-58.225zM450.191 385.84h-389.561c-4.914 0-9.224-3.187-9.224-6.822v-235.625l176.188 148.748c3.612 3.050 8.206 4.729 12.935 4.729l29.756 0.002c4.727 0 9.323-1.68 12.937-4.731l176.196-148.752v235.632c0 3.632-4.314 6.819-9.226 6.819zM255.411 245.831l-171.365-145.165h342.73l-171.365 145.165z"></path>
</svg>
