<!-- Generated by IcoMoon.io -->
<svg version="1.1" xmlns="http://www.w3.org/2000/svg" width="512" height="512" viewBox="0 0 512 512">
<path d="M256 0c68.38 0 132.667 26.629 181.020 74.98 48.351 48.353 74.98 112.64 74.98 181.020s-26.629 132.667-74.98 181.020c-48.353 48.351-112.64 74.98-181.020 74.98s-132.667-26.629-181.020-74.98c-48.351-48.353-74.98-112.64-74.98-181.020s26.629-132.667 74.98-181.020c48.353-48.351 112.64-74.98 181.020-74.98zM256 30c-60.367 0-117.12 23.508-159.806 66.194s-66.194 99.439-66.194 159.806c0 60.367 23.508 117.12 66.194 159.806s99.439 66.194 159.806 66.194c60.367 0 117.12-23.508 159.806-66.194s66.194-99.439 66.194-159.806c0-60.367-23.508-117.12-66.194-159.806s-99.439-66.194-159.806-66.194zM368.751 331.965l24.852 16.804c-31.005 45.855-82.446 73.231-137.603 73.231-53.978 0-104.79-26.466-135.924-70.796l24.55-17.242c25.523 36.342 67.159 58.038 111.374 58.038 45.183 0 87.332-22.443 112.751-60.035zM167.355 189.703c27.572 0 50.004 22.431 50.004 50.004h-30c0-11.030-8.974-20.004-20.004-20.004s-20.004 8.974-20.004 20.004h-30c0-27.572 22.432-50.004 50.004-50.004zM346.173 189.703c27.572 0 50.004 22.431 50.004 50.004h-30c0-11.030-8.974-20.004-20.004-20.004s-20.005 8.974-20.005 20.004h-30c0-27.572 22.432-50.004 50.005-50.004z"></path>
</svg>
