<!-- Generated by IcoMoon.io -->
<svg version="1.1" xmlns="http://www.w3.org/2000/svg" width="512" height="512" viewBox="0 0 512 512">
<path d="M267.13 0.346c135.012 0 244.871 109.859 244.871 244.871s-109.858 244.871-244.871 244.871c-101.311 0-190.752-60.95-227.906-155.295-3.383-8.548 0.844-18.252 9.416-21.636 8.547-3.339 18.277 0.824 21.66 9.44 32.079 81.452 109.345 134.099 196.83 134.099 116.601 0 211.48-94.879 211.48-211.48s-94.879-211.48-211.48-211.48c-87.485 0-164.751 52.647-196.83 134.099-3.407 8.617-13.113 12.779-21.66 9.44-8.572-3.383-12.799-13.089-9.416-21.636 37.153-94.345 126.595-155.295 227.906-155.295zM262.255 144.33l89.042 89.046 0.829 0.948c0.091 0.106 0.181 0.213 0.269 0.321l-1.099-1.269c0.924 0.924 1.717 1.929 2.379 2.993 0.17 0.338 0.361 0.667 0.54 1.004 0.317 0.528 0.575 1.087 0.8 1.655 0.075 0.265 0.174 0.531 0.265 0.8 0.265 0.704 0.454 1.416 0.594 2.134 0.010 0.16 0.041 0.331 0.070 0.504 0.154 0.815 0.226 1.63 0.24 2.446-0.015 0.087-0.014 0.196-0.014 0.304l0.012 0.335c-0.017 0.751-0.084 1.501-0.2 2.245l0.188-2.582c0 1.162-0.119 2.297-0.345 3.392-0.108 0.56-0.257 1.128-0.437 1.688-0.149 0.447-0.309 0.883-0.486 1.31-0.157 0.388-0.336 0.775-0.53 1.157-0.27 0.525-0.56 1.027-0.874 1.512-0.205 0.316-0.423 0.627-0.654 0.933-0.327 0.44-0.679 0.865-1.051 1.272-0.166 0.171-0.33 0.342-0.499 0.511l-89.042 89.042c-3.273 3.298-7.545 4.92-11.821 4.92s-8.547-1.623-11.8-4.896c-6.522-6.522-6.522-17.095 0-23.621l60.533-60.557-282.473 0.031c-9.216 0-16.695-7.48-16.695-16.696s7.479-16.696 16.695-16.696l282.505-0.016-60.565-60.555c-6.522-6.522-6.522-17.099 0-23.621 6.526-6.522 17.099-6.522 23.621 0z"></path>
</svg>
