
<svg width="13px" height="16px" viewBox="0 0 13 16" version="1.1" xmlns="http://www.w3.org/2000/svg" xmlns:xlink="http://www.w3.org/1999/xlink">
    <path d="M8.58447184,5.76874375 L5.28957014,0.309230257 C5.17227591,0.117294235 4.96434522,0 4.74041986,0 L2.6931023,0 C2.57047651,0 2.45318227,0.0319893369 2.35188271,0.101299567 C2.05331556,0.287904032 1.96267911,0.682439187 2.15461513,0.986337887 L6.54248584,7.9386871 L2.09596801,15.0189937 C2.03198934,15.1202932 2,15.2375875 2,15.3602133 C2,15.712096 2.28790403,16 2.63978674,16 L4.47917361,16 C4.70309897,16 4.9056981,15.8827058 5.02299234,15.6961013 L8.36587804,10.2845718 L11.6874375,15.6907697 C11.8047318,15.8827058 12.0126624,15.9946684 12.2312562,15.9946684 L14.2305898,15.9946684 C14.3532156,15.9946684 14.4705098,15.9573476 14.577141,15.8933689 C14.8757081,15.7014329 14.961013,15.3068977 14.769077,15.0083306 L10.2905698,8.05598134 L14.8383872,0.991669444 C14.9023659,0.890369877 14.9396868,0.767744085 14.9396868,0.645118294 C14.9396868,0.293235588 14.6517827,0.00533155615 14.2999,0.00533155615 L12.3965345,0.00533155615 C12.1726091,0.00533155615 11.9646784,0.122625791 11.8473842,0.314561813 L8.58447184,5.76874375 L8.58447184,5.76874375 Z"></path>
</svg>