<!-- Generated by IcoMoon.io -->
<svg version="1.1" xmlns="http://www.w3.org/2000/svg" width="512" height="512" viewBox="0 0 512 512">
<path d="M216.356 275.362c10.863 0 19.668 8.805 19.668 19.668v0 196.687c0 10.863-8.805 19.668-19.668 19.668v0h-196.687c-10.863 0-19.669-8.805-19.669-19.668v0-196.687c0-10.863 8.806-19.668 19.669-19.668v0zM491.716 275.362c10.863 0 19.668 8.805 19.668 19.668v0 196.687c0 10.863-8.805 19.668-19.668 19.668v0h-196.687c-10.863 0-19.668-8.805-19.668-19.668v0-196.687c0-10.863 8.805-19.668 19.668-19.668v0zM216.356 0c10.863 0 19.668 8.806 19.668 19.669v0 196.687c0 10.863-8.805 19.668-19.668 19.668v0h-196.687c-10.863 0-19.669-8.805-19.669-19.668v0-196.687c0-10.863 8.806-19.669 19.669-19.669v0zM491.716 0c10.863 0 19.668 8.806 19.668 19.669v0 196.687c0 10.863-8.805 19.668-19.668 19.668v0h-196.687c-10.863 0-19.668-8.805-19.668-19.668v0-196.687c0-10.863 8.805-19.669 19.668-19.669v0z"></path>
</svg>
