<!-- Generated by IcoMoon.io -->
<svg version="1.1" xmlns="http://www.w3.org/2000/svg" width="512" height="512" viewBox="0 0 512 512">
<path d="M376.5 18.285c-36.083 0-70.036 13.932-95.603 39.227-10.15 10.043-18.503 21.405-24.897 33.701-6.393-12.296-14.747-23.658-24.897-33.702-25.568-25.296-59.52-39.227-95.603-39.227-74.715 0-135.5 60.394-135.5 134.629 0 69.674 23.973 138.094 69.326 197.862 43.567 57.413 105.94 105.841 180.378 140.044l6.296 2.894 6.296-2.892c74.439-34.204 136.812-82.63 180.379-140.044 45.352-59.769 69.325-128.188 69.325-197.862 0-74.235-60.785-134.63-135.5-134.63zM256 460.825c-141.659-67.271-226-181.957-226-307.91 0-57.799 47.327-104.822 105.5-104.822 57.904 0 105.228 46.803 105.493 104.331l0.083 14.835h29.863l0.068-14.835c0.265-57.529 47.59-104.331 105.493-104.331 58.173 0 105.5 47.023 105.5 104.822 0 125.953-84.341 240.639-226 307.91z"></path>
</svg>
