
<svg width="16px" height="14px" viewBox="0 0 16 14" version="1.1" xmlns="http://www.w3.org/2000/svg" xmlns:xlink="http://www.w3.org/1999/xlink">
    <path d="M15.4285714,1 L0.571428571,1 C0.255357143,1 0,1.27857143 0,1.62337662 L0,14.0909091 C0,14.4357143 0.255357143,14.7142857 0.571428571,14.7142857 L15.4285714,14.7142857 C15.7446429,14.7142857 16,14.4357143 16,14.0909091 L16,1.62337662 C16,1.27857143 15.7446429,1 15.4285714,1 Z M14.7142857,13.3116883 L1.28571429,13.3116883 L1.28571429,12.5344156 L3.75892857,9.33376623 L6.43928571,12.8012987 L10.6089286,7.40909091 L14.7142857,12.7194805 L14.7142857,13.3116883 Z M14.7142857,10.7831169 L10.7178571,5.61298701 C10.6607143,5.53896104 10.5571429,5.53896104 10.5,5.61298701 L6.43928571,10.8649351 L3.86785714,7.53961039 C3.81071429,7.46558442 3.70714286,7.46558442 3.65,7.53961039 L1.28571429,10.5980519 L1.28571429,2.4025974 L14.7142857,2.4025974 L14.7142857,10.7831169 Z M4.28571429,6.76623377 C5.15357143,6.76623377 5.85714286,5.9987013 5.85714286,5.05194805 C5.85714286,4.10519481 5.15357143,3.33766234 4.28571429,3.33766234 C3.41785714,3.33766234 2.71428571,4.10519481 2.71428571,5.05194805 C2.71428571,5.9987013 3.41785714,6.76623377 4.28571429,6.76623377 Z M4.28571429,4.50649351 C4.5625,4.50649351 4.78571429,4.75 4.78571429,5.05194805 C4.78571429,5.3538961 4.5625,5.5974026 4.28571429,5.5974026 C4.00892857,5.5974026 3.78571429,5.3538961 3.78571429,5.05194805 C3.78571429,4.75 4.00892857,4.50649351 4.28571429,4.50649351 Z"></path>
</svg>