<svg width="13px" height="16px" viewBox="0 0 13 16" version="1.1" xmlns="http://www.w3.org/2000/svg" xmlns:xlink="http://www.w3.org/1999/xlink">
    <path d="M10.2441875,0 L3.87675,0 C2.842875,0 2.00175,0.841125 2.00175,1.875 L2.00175,14.125 C2.00175,15.158875 2.842875,16 3.87675,16 L12.8107813,16 C13.8446563,16 14.6857813,15.158875 14.6857813,14.125 L14.6857813,4.46425 L10.2441875,0 Z M10.592,2.121875 L12.5573125,4.09721875 L11.217,4.09721875 C10.872375,4.09721875 10.592,3.81684375 10.592,3.47221875 L10.592,2.121875 Z M12.81075,14.75 L3.87675,14.75 C3.532125,14.75 3.25175,14.469625 3.25175,14.125 L3.25175,1.875 C3.25175,1.530375 3.532125,1.25 3.87675,1.25 L9.34203125,1.25 L9.34203125,3.47221875 C9.34203125,4.50609375 10.1831563,5.34721875 11.2170313,5.34721875 L13.4357813,5.34721875 L13.4357813,14.125 C13.4357813,14.469625 13.155375,14.75 12.81075,14.75 Z M10.9271875,9.1665625 L10.0433125,10.0504375 L8.93925,8.946375 L8.93925,12.96875 L7.68925,12.96875 L7.68925,8.946375 L6.5851875,10.0504375 L5.7013125,9.1665625 L8.31425,6.553625 L10.9271875,9.1665625 Z" id="import"></path>
</svg> 