<!-- Generated by IcoMoon.io -->
<svg version="1.1" xmlns="http://www.w3.org/2000/svg" width="512" height="512" viewBox="0 0 512 512">
<path d="M256 0c141.504 0 256 114.511 256 256 0 141.504-114.509 256-256 256-141.504 0-256-114.511-256-256 0-141.504 114.509-256 256-256zM256 35.721c-121.462 0-220.279 98.816-220.279 220.279s98.817 220.279 220.279 220.279c121.462 0 220.279-98.816 220.279-220.279s-98.817-220.279-220.279-220.279zM256.006 213.397c14.49 0 26.283 6.403 26.283 15.837v0 128.388c0 8.088-11.793 16.174-26.283 16.174-15.164 0-25.947-8.086-25.947-16.174v0-128.386c0-9.435 10.783-15.839 25.947-15.839zM256.006 134.208c15.163 0 27.296 11.12 27.296 23.925 0 12.806-12.132 24.263-27.296 24.263-15.5 0-27.631-11.457-27.631-24.263 0-12.805 12.13-23.925 27.631-23.925z"></path>
</svg>
