<!-- Generated by IcoMoon.io -->
<svg version="1.1" xmlns="http://www.w3.org/2000/svg" width="512" height="512" viewBox="0 0 512 512">
<path  d="M467 0h-211c-8.284 0-15 6.716-15 15v62.899c-4.858-1.252-9.896-1.899-15-1.899-33.084 0-60 26.916-60 60s26.916 60 60 60c5.104 0 10.142-0.647 15-1.899v46.899h-71.485c-5.918 0-11.282 3.479-13.696 8.883-2.413 5.403-1.424 11.72 2.525 16.127 4.937 5.51 7.656 12.61 7.656 19.99 0 16.542-13.458 30-30 30s-30-13.458-30-30c0-7.38 2.719-14.48 7.656-19.99 3.949-4.407 4.938-10.724 2.525-16.127-2.414-5.403-7.778-8.883-13.696-8.883h-87.485c-3.979 0-7.794 1.58-10.606 4.393-2.814 2.813-4.394 6.628-4.394 10.607v211c0 24.813 20.187 45 45 45h422c24.813 0 45-20.187 45-45v-422c0-24.813-20.187-45-45-45zM241 409.445v0c0 0.011 0 0.021 0 0.031 0 0.002 0 0.005 0 0.008 0 0.010 0 0.021 0 0.031v72.485h-196c-8.271 0-15-6.729-15-15v-196.1h47.904c-1.256 4.86-1.904 9.996-1.904 15.1 0 33.084 26.916 60 60 60s60-26.916 60-60c0-5.104-0.648-10.14-1.904-15h46.904c0 6.666 0 64.819 0 71.486v0.001c0 13.043 15.458 19.735 25.010 11.17 5.511-4.938 12.609-7.657 19.99-7.657 16.542 0 30 13.458 30 30s-13.458 30-30 30c-7.365 0-14.45-2.708-19.955-7.626-9.554-8.62-24.984-1.921-25.045 11.071zM482 467c0 8.271-6.729 15-15 15h-196v-47.905c4.86 1.256 9.896 1.905 15 1.905 33.084 0 60-26.916 60-60s-26.916-60-60-60c-5.104 0-10.14 0.648-15 1.905v-46.905h71.485c5.918 0 11.282-3.479 13.696-8.883 2.413-5.403 1.424-11.72-2.525-16.127-4.937-5.51-7.656-12.61-7.656-19.99 0-16.542 13.458-30 30-30s30 13.458 30 30c0 7.38-2.719 14.48-7.656 19.99-3.949 4.407-4.938 10.724-2.525 16.127s7.778 8.883 13.696 8.883h72.485v196zM482 241h-47.904c1.256-4.86 1.904-9.896 1.904-15 0-33.084-26.916-60-60-60s-60 26.916-60 60c0 5.104 0.648 10.14 1.904 15h-46.904v-71.458c0-12.7-15.173-19.965-25.004-11.177-5.501 4.923-12.602 7.635-19.996 7.635-16.542 0-30-13.458-30-30s13.458-30 30-30c7.394 0 14.495 2.712 19.996 7.635 9.522 8.514 25.004 1.933 25.004-11.177v-72.458h196c8.271 0 15 6.729 15 15v196z"></path>
</svg>
