<!-- Generated by IcoMoon.io -->
<svg version="1.1" xmlns="http://www.w3.org/2000/svg" width="32" height="32" viewBox="0 0 32 32">
    <path d="M26.368 0c2.463 0.003 4.459 1.999 4.462 4.462v0 23.045c-0.003 2.463-1.998 4.459-4.462 4.462v0h-20.706c-2.463-0.003-4.459-1.999-4.462-4.462v0-23.045c0.003-2.463 1.998-4.459 4.462-4.462v0zM8.218 2.339h-2.556c-1.172 0.002-2.121 0.951-2.122 2.123v0 4.115h1.949c0.646 0 1.17 0.524 1.17 1.17s-0.524 1.17-1.17 1.17v0h-1.949v3.899h1.949c0.646 0 1.17 0.524 1.17 1.17s-0.524 1.17-1.17 1.17v0h-1.949v3.899h1.949c0.646 0 1.17 0.524 1.17 1.17s-0.524 1.17-1.17 1.17v0h-1.949v4.115c0.001 1.172 0.951 2.121 2.122 2.123v0h2.556v-27.29zM26.368 2.339h-15.811v27.29h15.811c1.172-0.002 2.121-0.951 2.122-2.123v0-23.044c-0.001-1.172-0.951-2.121-2.122-2.123v0zM24.143 5.068c1.539 0.002 2.786 1.249 2.788 2.788v0 3.782c-0.002 1.539-1.249 2.785-2.788 2.788v0h-7.68c-1.539-0.002-2.786-1.249-2.788-2.788v0-3.782c0.002-1.539 1.249-2.785 2.788-2.788v0zM24.143 7.407h-7.68c-0.248 0-0.449 0.201-0.449 0.448v0 3.782c0 0.247 0.201 0.448 0.448 0.448v0h7.68c0.248 0 0.449-0.201 0.449-0.448v0-3.782c0-0.247-0.201-0.448-0.448-0.448v0z"></path>
</svg>
