<!-- Generated by IcoMoon.io -->
<svg version="1.1" xmlns="http://www.w3.org/2000/svg" width="352" height="512" viewBox="0 0 352 512">
<path d="M335 183c8.284 0 15 6.716 15 15v0 63c0 91.441-70.501 166.715-160 174.35v0 46.65h85c8.284 0 15 6.716 15 15s-6.716 15-15 15v0h-200c-8.284 0-15-6.716-15-15s6.716-15 15-15v0h85v-46.65c-89.499-7.634-160-82.908-160-174.35v0-63c0-8.284 6.716-15 15-15s15 6.716 15 15v0 63c0 79.953 65.047 145 145 145s145-65.047 145-145v0-63c0-8.284 6.716-15 15-15zM175 0c63.411 0 115 51.589 115 115v0 146c0 63.411-51.589 115-115 115s-115-51.589-115-115v0-146c0-63.411 51.589-115 115-115zM175 30c-46.198 0-83.879 37.054-84.949 83v0h26.949c8.284 0 15 6.716 15 15s-6.716 15-15 15v0h-27v30h27c8.284 0 15 6.716 15 15s-6.716 15-15 15v0h-27v30h27c8.284 0 15 6.716 15 15s-6.716 15-15 15v0h-26.949c1.070 45.946 38.751 83 84.949 83s83.879-37.054 84.949-83v0h-26.949c-8.284 0-15-6.716-15-15s6.716-15 15-15v0h27v-30h-27c-8.284 0-15-6.716-15-15s6.716-15 15-15v0h27v-30h-27c-8.284 0-15-6.716-15-15s6.716-15 15-15v0h26.949c-1.070-45.946-38.751-83-84.949-83z"></path>
</svg>
