<!-- Generated by IcoMoon.io -->
<svg version="1.1" xmlns="http://www.w3.org/2000/svg" width="512" height="512" viewBox="0 0 512 512">
<path d="M256.005 453.786c7.46 0 13.506 6.046 13.506 13.506v0 24.392c0 7.459-6.047 13.506-13.506 13.506s-13.506-6.047-13.506-13.506v0-24.392c0-7.459 6.047-13.506 13.506-13.506zM256.002 0.81c12.947 0 24.549 7.212 30.278 18.822v0l50.101 101.515c0.984 1.994 2.885 3.375 5.084 3.694v0l112.030 16.279c12.812 1.861 23.256 10.666 27.257 22.979 4 12.313 0.727 25.576-8.544 34.613v0l-81.066 79.018c-1.591 1.552-2.317 3.787-1.942 5.978v0l19.137 111.576c2.189 12.759-2.958 25.413-13.432 33.024-5.917 4.303-12.843 6.487-19.813 6.487-5.367 0-10.76-1.294-15.744-3.914v0l-100.202-52.679c-1.969-1.035-4.318-1.035-6.286 0v0l-100.201 52.679c-11.458 6.023-25.086 5.040-35.56-2.572-10.474-7.61-15.62-20.263-13.432-33.024v0l19.137-111.576c0.376-2.191-0.351-4.426-1.942-5.978v0l-81.065-79.019c-9.272-9.037-12.546-22.3-8.544-34.613s14.445-21.118 27.257-22.979v0l112.028-16.278c2.2-0.32 4.1-1.701 5.085-3.694v0l50.101-101.516c5.729-11.61 17.331-18.822 30.278-18.822zM256.005 27.822c-1.263 0-4.379 0.367-6.056 3.764v0l-50.101 101.516c-4.92 9.969-14.425 16.873-25.424 18.471v0l-112.027 16.279c-3.749 0.544-5.062 3.395-5.451 4.596-0.391 1.2-1.005 4.277 1.708 6.923v0l81.065 79.019c7.961 7.759 11.59 18.931 9.711 29.886v0l-19.137 111.576c-0.641 3.734 1.665 5.863 2.686 6.604s3.758 2.276 7.112 0.513v0l100.201-52.678c4.918-2.584 10.315-3.878 15.712-3.878s10.793 1.294 15.712 3.879v0l100.202 52.679c3.352 1.764 6.090 0.227 7.112-0.513 1.021-0.741 3.326-2.87 2.686-6.604v0l-19.137-111.578c-1.879-10.955 1.75-22.127 9.71-29.885v0l81.065-79.019c2.714-2.644 2.099-5.722 1.709-6.923s-1.702-4.052-5.451-4.596v0l-112.029-16.279c-10.999-1.598-20.503-8.502-25.422-18.471v0l-50.101-101.516-1.153-1.698c-1.697-1.834-3.893-2.067-4.902-2.067zM462.448 303.849c2.305-7.095 9.927-10.975 17.019-8.672v0l23.197 7.538c7.094 2.305 10.976 9.924 8.671 17.018-1.854 5.708-7.149 9.337-12.843 9.337-1.383 0-2.789-0.214-4.176-0.664v0l-23.197-7.538c-7.095-2.305-10.976-9.924-8.671-17.019zM32.533 295.158c7.095-2.305 14.714 1.578 17.019 8.671 2.305 7.095-1.577 14.714-8.671 17.019v0l-23.197 7.538c-1.387 0.451-2.794 0.666-4.177 0.666-5.693 0-10.988-3.628-12.842-9.337-2.305-7.093 1.576-14.714 8.671-17.019v0zM394.918 22.613c4.384-6.034 12.829-7.372 18.865-2.988s7.372 12.831 2.988 18.866v0l-14.337 19.732c-2.642 3.636-6.76 5.567-10.937 5.567-2.752 0-5.529-0.839-7.928-2.58-6.035-4.384-7.372-12.831-2.988-18.865v0zM98.158 19.545c6.036-4.382 14.482-3.044 18.865 2.988v0l14.337 19.732c4.385 6.035 3.047 14.482-2.987 18.865-2.396 1.742-5.174 2.581-7.927 2.581-4.178 0-8.296-1.93-10.939-5.569v0l-14.337-19.732c-4.384-6.034-3.046-14.481 2.988-18.865z"></path>
</svg>
