
<svg width="13px" height="16px" viewBox="0 0 16 16" version="1.1" xmlns="http://www.w3.org/2000/svg" xmlns:xlink="http://www.w3.org/1999/xlink">
    <path d="M14.4035714,4.01071429 L10.5607143,0.167857143 C10.4535714,0.0607142857 10.3089286,0 10.1571429,0 L2.57142857,0 C2.25535714,0 2,0.255357143 2,0.571428571 L2,15.4285714 C2,15.7446429 2.25535714,16 2.57142857,16 L14,16 C14.3160714,16 14.5714286,15.7446429 14.5714286,15.4285714 L14.5714286,4.41607143 C14.5714286,4.26428571 14.5107143,4.11785714 14.4035714,4.01071429 Z M13.2535714,4.67857143 L9.89285714,4.67857143 L9.89285714,1.31785714 L13.2535714,4.67857143 Z M13.2857143,14.7142857 L3.28571429,14.7142857 L3.28571429,1.28571429 L8.67857143,1.28571429 L8.67857143,5.14285714 C8.67857143,5.55714286 9.01428571,5.89285714 9.42857143,5.89285714 L13.2857143,5.89285714 L13.2857143,14.7142857 Z M8.14285714,9.89285714 C8.09047619,9.89285714 6.9952381,9.89285714 4.85714286,9.89285714 C4.77857143,9.89285714 4.71428571,9.95714286 4.71428571,10.0357143 L4.71428571,10.8928571 C4.71428571,10.9714286 4.77857143,11.0357143 4.85714286,11.0357143 L8.14285714,11.0357143 C8.22142857,11.0357143 8.28571429,10.9714286 8.28571429,10.8928571 L8.28571429,10.0357143 C8.28571429,9.95714286 8.22142857,9.89285714 8.14285714,9.89285714 Z M4.71428571,7.60714286 L4.71428571,8.46428571 C4.71428571,8.54285714 4.77857143,8.60714286 4.85714286,8.60714286 L11.7142857,8.60714286 C11.7928571,8.60714286 11.8571429,8.54285714 11.8571429,8.46428571 L11.8571429,7.60714286 C11.8571429,7.52857143 11.7928571,7.46428571 11.7142857,7.46428571 L4.85714286,7.46428571 C4.77857143,7.46428571 4.71428571,7.52857143 4.71428571,7.60714286 Z"></path>
</svg>