<!-- Generated by IcoMoon.io -->
<svg version="1.1" xmlns="http://www.w3.org/2000/svg" width="512" height="512" viewBox="0 0 512 512">
<path d="M368.345 0.209c10.173 0 18.417 8.244 18.417 18.417v0l-0.010 106.799 106.831 0.021c9.155 0 16.748 6.678 18.175 15.43l0.241 2.988v331.511c0 10.178-8.238 18.417-18.417 18.417v0h-349.928c-10.172 0-18.417-8.245-18.417-18.417v0l-0.021-106.845-106.799 0.025c-9.155 0-16.748-6.678-18.176-15.43l-0.241-2.988v-331.511c0-10.173 8.245-18.417 18.417-18.417v0zM386.762 350.137c0 10.172-8.245 18.417-18.417 18.417v0l-206.297-0.025 0.024 88.428h313.093v-294.676l-88.413-0.024zM349.929 37.043h-313.094v294.676h313.094v-294.676z"></path>
</svg>
