<!-- Generated by IcoMoon.io -->
<svg version="1.1" xmlns="http://www.w3.org/2000/svg" width="512" height="512" viewBox="0 0 512 512">
<path d="M255.816 16c33.012 0 62.449 17.032 78.745 45.733v0l164.639 285.122c16.401 28.386 16.295 62.344-0.211 90.836-16.611 28.702-46.154 45.838-79.060 45.838v0h-328.858c-32.801 0-62.134-16.926-78.534-45.103-16.611-28.491-16.716-62.659-0.316-91.361v0l164.85-285.438c16.296-28.491 45.733-45.628 78.745-45.628zM255.816 57.212c-18.083 0-34.063 9.252-42.999 24.916v0l-164.85 285.332c-9.041 15.77-8.937 34.484 0.105 50.149 8.937 15.454 25.022 24.601 42.895 24.601v0h328.858c18.083 0 34.274-9.357 43.42-25.127 9.041-15.665 9.147-34.168 0.315-49.518v0l-164.744-285.332c-8.937-15.665-25.022-25.022-43-25.022zM255.712 344.542c14.404 0 26.284 11.88 25.652 26.914 0.631 13.668-11.88 25.652-25.653 25.652-14.298 0-26.284-11.985-26.284-26.284s11.985-26.284 26.284-26.284zM249.193 160.033c12.511-2.944 25.022 3.049 30.383 14.824 1.788 4.206 2.418 8.411 2.418 13.142v0l-2.418 39.425c-1.156 20.291-2.418 40.582-3.575 60.873-0.631 6.623-0.631 12.616-0.631 19.135-0.526 10.829-8.937 19.135-19.66 19.135s-19.029-7.78-19.66-18.503c-1.787-31.645-3.575-62.66-5.362-94.305v0l-1.787-25.022c0-13.773 7.78-25.127 20.291-28.702z"></path>
</svg>
