<!-- Generated by IcoMoon.io -->
<svg version="1.1" xmlns="http://www.w3.org/2000/svg" width="448" height="512" viewBox="0 0 448 512">
<path d="M315.667 334.667c0 11.046-8.954 20-20 20h-157.334c-11.046 0-20-8.954-20-20s8.954-20 20-20h157.334c11.046 0 20 8.954 20 20zM295.667 196.667h-157.334c-11.046 0-20 8.954-20 20s8.954 20 20 20h157.334c11.046 0 20-8.954 20-20s-8.954-20-20-20zM433.917 80v352c0 44.112-35.888 80-80 80h-273.834c-44.112 0-80-35.888-80-80v-352c0-44.112 35.888-80 80-80h273.834c44.112 0 80 35.888 80 80zM158.333 58.667c0 11.028 8.972 20 20 20h77.334c11.028 0 20-8.972 20-20v-18.667h-117.334v18.667zM393.917 80c0-22.056-17.944-40-40-40h-38.25v18.667c0 33.084-26.916 60-60 60h-77.334c-33.084 0-60-26.916-60-60v-18.667h-38.25c-22.056 0-40 17.944-40 40v352c0 22.056 17.944 40 40 40h273.834c22.056 0 40-17.944 40-40v-352z"></path>
</svg>
