<svg width="15px" height="15px" viewBox="0 0 15 15" version="1.1" xmlns="http://www.w3.org/2000/svg" xmlns:xlink="http://www.w3.org/1999/xlink">
    <path d="M0.804640719,2.1998503 C1.24376248,2.1998503 1.60304392,2.55913174 1.60304392,2.9982535 L1.60304392,2.9982535 L1.60304392,12.5790918 C1.6030439,13.0182136 1.96232534,13.377495 2.4014471,13.377495 L2.4014471,13.377495 L11.9822854,13.377495 C12.4214072,13.377495 12.7806886,13.7367764 12.7806886,14.1758982 C12.7806886,14.61502 12.4214072,14.9743014 11.9822854,14.9743014 L11.9822854,14.9743014 L1.60304392,14.9743014 C0.724800393,14.9743014 0.00623751871,14.2557385 0.00623751871,13.377495 L0.00623751871,13.377495 L0.00623751871,2.9982535 C0.00623751871,2.55913174 0.365518956,2.1998503 0.804640719,2.1998503 Z M14.5714286,0 C14.8084821,0 15,0.24375 15,0.545454545 L15,0.545454545 L15,11.4545455 C15,11.75625 14.8084821,12 14.5714286,12 L14.5714286,12 L3.42857143,12 C3.19151786,12 3,11.75625 3,11.4545455 L3,11.4545455 L3,0.545454545 C3,0.24375 3.19151786,0 3.42857143,0 L3.42857143,0 Z M13.3,1.5 L4.7,1.5 C4.58954305,1.5 4.5,1.58954305 4.5,1.7 L4.5,1.7 L4.5,10.3 C4.5,10.4104569 4.58954305,10.5 4.7,10.5 L4.7,10.5 L13.3,10.5 C13.4104569,10.5 13.5,10.4104569 13.5,10.3 L13.5,10.3 L13.5,1.7 C13.5,1.58954305 13.4104569,1.5 13.3,1.5 L13.3,1.5 Z" id="Combined-Shape"></path>
</svg>