<!-- Generated by IcoMoon.io -->
<svg version="1.1" xmlns="http://www.w3.org/2000/svg" width="512" height="512" viewBox="0 0 512 512">
<path d="M255.997 63.997c116.532 0 219.209 75.844 255.49 188.74 0.677 2.115 0.677 4.406 0.001 6.521-36.282 112.896-138.958 188.74-255.49 188.74s-219.209-75.844-255.49-188.74c-0.677-2.115-0.677-4.406 0-6.521 36.281-112.896 138.957-188.74 255.489-188.74zM255.997 106.665c-82.343 0-149.333 66.99-149.333 149.333s66.989 149.333 149.333 149.333c82.344 0 149.333-66.99 149.333-149.333s-66.99-149.333-149.333-149.333zM255.997 170.664c47.128 0 85.333 38.205 85.333 85.333s-38.205 85.333-85.333 85.333c-47.128 0-85.333-38.205-85.333-85.333s38.205-85.333 85.333-85.333z"></path>
</svg>
