<!-- Generated by IcoMoon.io -->
<svg version="1.1" xmlns="http://www.w3.org/2000/svg" width="512" height="512" viewBox="0 0 512 512">
<path d="M432 203c44.112 0 80 35.888 80 80v0 68c0 44.112-35.888 80-80 80v0h-20v1c0 33.084-26.916 60-60 60v0h-61v-0.634c-6.822 12.303-19.936 20.634-35 20.634-22.091 0-40-17.909-40-40s17.909-40 40-40c15.064 0 28.178 8.331 35 20.634v0-0.634h61c11.028 0 20-8.972 20-20v0-209c0-11.046 8.954-20 20-20v0zM256 0c45.013 0 88.157 13.714 124.767 39.659 35.787 25.362 62.716 60.426 77.874 101.402 3.832 10.36-1.46 21.864-11.819 25.697-10.361 3.831-21.865-1.46-25.697-11.819-25.433-68.749-91.791-114.939-165.125-114.939-92.674 0-168.843 72-175.519 163v0h39.519c11.046 0 20 8.954 20 20v0 188c0 11.046-8.954 20-20 20v0h-40c-44.112 0-80-35.888-80-80v0-68c0-29.557 16.125-55.403 40.027-69.253 0.578-56.853 22.973-110.217 63.238-150.482 40.797-40.797 95.040-63.265 152.735-63.265zM100 243h-20c-22.056 0-40 17.944-40 40v0 68c0 22.056 17.944 40 40 40v0h20v-148zM432 243h-20v148h20c22.056 0 40-17.944 40-40v0-68c0-22.056-17.944-40-40-40v0z"></path>
</svg>
