<!-- Generated by IcoMoon.io -->
<svg version="1.1" xmlns="http://www.w3.org/2000/svg" width="480" height="512" viewBox="0 0 480 512">
<path d="M270 91c33.080 0 60 26.92 60 60v0 14.99c0 14.93-3.69 49.76-12.34 76.010v0h87.34c24.81 0 45 20.19 45 45 0 11.51-4.35 22.030-11.49 30 7.14 7.97 11.49 18.49 11.49 30s-4.35 22.030-11.49 30c7.14 7.97 11.49 18.49 11.49 30 0 20.72-14.080 38.21-33.16 43.42 2.040 5.13 3.16 10.73 3.16 16.58 0 24.81-20.19 45-45 45v0h-125.66c-17.77 0-35.33-2.85-52.18-8.47v0l-51.54-17.18c-7.25 15.16-22.73 25.65-40.62 25.65v0h-90c-8.28 0-15-6.72-15-15v0-270c0-8.28 6.72-15 15-15v0h90c19 0 35.27 11.84 41.86 28.52 37.62-9.18 73.97-59.69 85.42-105.47v0l8.17-32.69c1.67-6.68 7.67-11.36 14.55-11.36v0zM105 242h-75v240h75c8.27 0 15-6.73 15-15v0-210c0-8.27-6.73-15-15-15v0zM270 121h-3.29l-5.33 21.33c-7.27 29.090-23.73 60.67-44.030 84.49-20.79 24.39-43.82 39.29-67.35 43.76v0 185.61l56.64 18.88c13.79 4.6 28.16 6.93 42.7 6.93v0h125.66c8.27 0 15-6.73 15-15s-6.73-15-15-15c-8.28 0-15-6.72-15-15s6.72-15 15-15v0h30c8.27 0 15-6.73 15-15s-6.73-15-15-15v0h-30c-8.28 0-15-6.72-15-15s6.72-15 15-15v0h30c8.27 0 15-6.73 15-15s-6.73-15-15-15v0h-30c-8.28 0-15-6.72-15-15s6.72-15 15-15v0h30c8.27 0 15-6.73 15-15s-6.73-15-15-15v0h-150c-8.28 0-15-6.72-15-15s6.72-15 15-15v0h30.64c8.060-17.24 14.36-55.87 14.36-76.010v0-14.99c0-16.54-13.46-30-30-30v0zM75 422c8.284 0 15 6.716 15 15s-6.716 15-15 15c-8.284 0-15-6.716-15-15s6.716-15 15-15zM178.934 44.935c5.858-5.858 15.356-5.858 21.213 0v0l21.213 21.213c5.858 5.858 5.858 15.355 0 21.213-5.857 5.858-15.356 5.857-21.213 0v0l-21.213-21.213c-5.858-5.858-5.858-15.355 0-21.213zM369.853 44.935c5.858-5.858 15.356-5.858 21.213 0s5.858 15.355 0 21.213v0l-21.213 21.213c-5.858 5.858-15.356 5.857-21.213-0.001s-5.858-15.355 0-21.213v0zM285 0c8.284 0 15 6.716 15 15v0 31c0 8.284-6.716 15-15 15s-15-6.716-15-15v0-31c0-8.284 6.716-15 15-15z"></path>
</svg>
