<!-- Generated by IcoMoon.io -->
<svg version="1.1" xmlns="http://www.w3.org/2000/svg" width="512" height="512" viewBox="0 0 512 512">
<path d="M495.102 112.37c9.333 0 16.899 7.564 16.899 16.897v0 253.466c0 9.334-7.559 16.898-16.898 16.898v0h-350.909c-9.333 0-16.898-7.565-16.898-16.898v0-253.465c0-9.333 7.565-16.898 16.898-16.898v0zM478.205 165.723l-152.424 129.081c-6.427 5.446-15.901 5.322-22.181-0.299v0l-142.509-127.454v198.784h317.114v-200.112zM95.754 307.82c9.333 0 16.898 7.564 16.898 16.897s-7.565 16.898-16.898 16.898v0h-78.856c-9.333 0-16.898-7.565-16.898-16.898s7.565-16.897 16.898-16.897v0zM95.754 239.102c9.333 0 16.897 7.565 16.897 16.898s-7.565 16.898-16.898 16.898v0h-29.289c-9.333 0-16.898-7.565-16.898-16.898s7.565-16.898 16.898-16.898v0zM449.005 146.165h-260.568l126.733 113.344 133.835-113.344zM95.754 170.385c9.333 0 16.898 7.565 16.898 16.898s-7.565 16.898-16.898 16.898v0h-78.856c-9.333 0-16.898-7.565-16.898-16.898s7.565-16.898 16.898-16.898v0z"></path>
</svg>
