<svg width="16px" height="16px" viewBox="0 0 16 16" version="1.1" xmlns="http://www.w3.org/2000/svg" xmlns:xlink="http://www.w3.org/1999/xlink">
    <path d="M15.7475533,9.77282067 C15.3923457,9.3510205 14.6639377,9.14595418 13.5207336,9.14595418 C12.856238,9.14595418 12.0535187,9.21613807 11.1335701,9.35457615 C8.62090471,7.51741279 7.91931597,5.49067432 7.91931597,5.49067432 C7.91931597,5.49067432 8.34845972,4.39814273 8.37568992,2.6137781 C8.39291428,1.48579722 8.21822286,0.724905948 7.76694117,0.282861799 C7.59151718,0.111029197 7.29725586,0 7.01727075,0 C6.79875013,0 6.59413051,0.0641803792 6.42646105,0.186877112 C5.1202331,1.14268591 6.54635257,5.6485702 6.58451774,5.76860467 C5.96808593,7.28567016 5.19156052,8.89289552 4.3923254,10.3051676 C4.13263786,10.7640073 4.15795624,10.7281292 3.93902467,11.101258 C3.93902467,11.101258 1.72857165,12.1395258 0.656373377,13.4147356 C0.0505727772,14.1352997 -0.0260077086,14.6217448 0.00615395131,14.9924615 L0.0069579928,15.0005555 C0.0579878266,15.4370965 0.616832403,15.8346146 1.17942917,15.8346146 C1.20276424,15.8346146 1.22624226,15.8339178 1.24923784,15.8324884 C1.82101855,15.7971999 2.44759916,15.3909266 3.16476844,14.590405 C3.63813447,14.0619532 4.25329769,13.132249 4.99399859,11.826021 C7.11915174,11.221489 8.98937013,10.7909159 10.5567329,10.5453437 C11.706137,11.1639018 13.4161903,11.8644006 14.5802816,11.8644006 C14.9707599,11.8644006 15.28489,11.7848005 15.5138989,11.627798 C15.7879162,11.4400454 15.9042878,11.2060514 15.976598,10.7728339 C16.0489438,10.3396521 15.94826,10.0111386 15.7475533,9.77282067 Z M13.2648876,10.300254 C14.2865742,10.300254 14.8397548,10.4488052 15.1239388,10.5734316 C15.2115793,10.6118826 15.2753308,10.6489579 15.3205716,10.6799403 C15.2404712,10.7310952 15.0829684,10.7957044 14.7983019,10.7957044 C14.326276,10.7957044 13.7067352,10.6308759 12.9510791,10.3047209 C13.0585706,10.3017549 13.163221,10.300254 13.2648876,10.300254 Z M7.20977615,0.904350142 C7.21049085,0.903010073 7.21127703,0.901616401 7.21217041,0.900169127 C7.43133425,1.01557588 7.53360833,1.82603185 7.5130606,2.2959673 C7.48549091,2.92660385 7.47895137,3.17028203 7.36822593,3.55772282 C7.06808617,2.74998273 7.046788,1.29808033 7.20977615,0.904350142 Z M7.28993015,7.29755211 C7.80530288,8.13450571 8.5696426,9.04101783 9.30601954,9.68825337 C7.86875069,9.99203811 6.48874747,10.3728143 5.63006688,10.6691483 C6.55047999,9.09744367 7.22950197,7.45332175 7.28993015,7.29755211 Z M1.37425736,14.5147358 C1.49895527,14.3070251 1.83965445,13.9045576 2.70367744,13.1262991 C2.11143834,14.0170341 1.67641616,14.5020677 1.23506885,14.8046017 C1.27160806,14.7092245 1.31758137,14.609166 1.37425736,14.5147358 Z" id="PDF"></path>
</svg>