<!-- Generated by IcoMoon.io -->
<svg version="1.1" xmlns="http://www.w3.org/2000/svg" width="512" height="512" viewBox="0 0 512 512">
<path d="M506.143 168.057l-162.199-162.2c-7.811-7.809-20.475-7.809-28.285 0-7.81 7.811-7.81 20.475 0 28.285l6.133 6.133-136.703 136.702-99.841 23.040c-7.084 1.636-12.724 6.986-14.728 13.975s-0.058 14.515 5.083 19.656l87.23 87.23-156.975 156.981c-7.81 7.811-7.81 20.474 0 28.284s20.474 7.81 28.285-0.001l156.975-156.98 87.235 87.235c5.147 5.147 12.673 7.085 19.656 5.082 6.988-2.004 12.339-7.643 13.975-14.728l23.040-99.841 136.701-136.702 6.133 6.133c7.812 7.811 20.474 7.809 28.285 0 7.809-7.809 7.809-20.473 0-28.284zM281.121 382.596c-1.692-1.692-150.028-150.028-151.717-151.717l59.467-13.724 105.974 105.974-13.724 59.467zM316.826 288.541l-93.366-93.366 126.615-126.615 93.365 93.365-126.614 126.616z"></path>
</svg>
