<!-- Generated by IcoMoon.io -->
<svg version="1.1" xmlns="http://www.w3.org/2000/svg" width="512" height="512" viewBox="0 0 512 512">
<path d="M479.058 224.245l-198.188 0.599v-194.287c0-16.928-13.628-30.556-30.556-30.556-16.923 0-30.556 13.628-30.556 30.556l0.599 193.694h-189.799c-16.928 0-30.556 13.628-30.556 30.556 0 16.923 13.628 30.551 30.556 30.551h189.5v193.7c0 16.918 13.628 30.557 30.556 30.557s30.556-13.639 30.556-30.557v-193.694h197.888c16.928 0 30.557-13.639 30.557-30.556 0-16.934-13.781-30.562-30.557-30.562z"></path>
</svg>
