
<svg width="12px" height="16px" viewBox="0 0 12 16" version="1.1" xmlns="http://www.w3.org/2000/svg" xmlns:xlink="http://www.w3.org/1999/xlink">
    <path d="M2.43835616,0 C2.19726027,0 2,0.197260274 2,0.438356164 L2,15.5616438 C2,15.8027397 2.19726027,16 2.43835616,16 L4.21917808,16 C4.46027397,16 4.65753425,15.8027397 4.65753425,15.5616438 L4.65753425,10.3287671 L8.1260274,10.3287671 C11.3808219,10.3287671 13.3972603,8.19726027 13.3972603,5.17260274 C13.3972603,2.18630137 11.4082192,0.00547945205 8.1369863,0.00547945205 L2.43835616,0.00547945205 L2.43835616,0 Z M10.690411,5.16712329 C10.690411,7.54520548 9.23835616,8.14246575 6.7890411,8.14246575 L4.65753425,8.14246575 L4.65753425,2.20273973 L7.7369863,2.20273973 C9.5890411,2.20273973 10.690411,3.28219178 10.690411,5.16712329 L10.690411,5.16712329 Z"></path>
</svg>