<!-- Generated by IcoMoon.io -->
<svg version="1.1" xmlns="http://www.w3.org/2000/svg" width="512" height="512" viewBox="0 0 512 512">
<path d="M256 0c141.385 0 256 114.615 256 256s-114.615 256-256 256c-141.385 0-256-114.615-256-256s114.615-256 256-256zM256 42.666c-117.82 0-213.333 95.513-213.333 213.334s95.513 213.333 213.333 213.333c117.82 0 213.333-95.512 213.333-213.333s-95.512-213.333-213.333-213.333zM256 192c35.346 0 64 28.654 64 64s-28.654 64-64 64c-35.346 0-64-28.654-64-64s28.654-64 64-64z"></path>
</svg>
