<!-- Generated by IcoMoon.io -->
<svg version="1.1" xmlns="http://www.w3.org/2000/svg" width="448" height="512" viewBox="0 0 448 512">
<path d="M247.823 510.079c102.609-11.494 184.843-93.519 196.546-196.127 15.36-134.165-88.921-248.372-219.637-249.835v-60.186c0-3.344-4.179-5.12-7.001-3.030l-123.925 91.010c-2.090 1.567-2.090 4.597 0 6.165l123.925 91.010c2.821 2.090 7.001 0.209 7.001-3.030v-60.082c91.846 1.463 165.407 79.621 159.138 173.035-5.329 80.353-70.844 145.554-151.196 150.674-85.159 5.433-157.571-55.38-170.528-135.837-2.404-14.942-15.465-25.809-30.511-25.809-18.703 0-33.332 16.614-30.407 35.108 18.181 114.625 124.029 200.62 246.596 186.932z"></path>
</svg>
