<!-- Generated by IcoMoon.io -->
<svg version="1.1" xmlns="http://www.w3.org/2000/svg" width="512" height="512" viewBox="0 0 512 512">
<path d="M505.731 475.637l-123.089-123.089c30.511-37.199 48.901-84.846 48.901-136.777 0-119.118-96.653-215.772-215.772-215.772-119.223 0-215.772 96.653-215.772 215.772s96.549 215.772 215.772 215.772c51.931 0 99.474-18.286 136.673-48.796l123.089 122.984c8.359 8.359 21.839 8.359 30.197 0 8.359-8.255 8.359-21.839 0-30.093zM215.772 388.598c-95.399 0-172.93-77.531-172.93-172.826s77.531-172.93 172.93-172.93c95.295 0 172.93 77.636 172.93 172.93s-77.636 172.826-172.93 172.826z"></path>
</svg>
