<!-- Generated by IcoMoon.io -->
<svg version="1.1" xmlns="http://www.w3.org/2000/svg" width="480" height="512" viewBox="0 0 480 512">
<path d="M102.813 153.48v281.011c0 14.164 11.396 25.596 25.452 25.596v0h204.894c14.075 0 25.452-11.399 25.452-25.596v0-281.012h51.161v281.012c0 42.433-34.263 76.757-76.613 76.757v0h-204.894c-42.349 0-76.613-34.375-76.613-76.757v0-281.012h51.16zM204.593 153.021v256.259h-51.16v-256.259h51.161zM307.185 153.48v255.8h-51.161v-255.8h51.161zM153.704 25.579c0-14.226 11.468-25.579 25.614-25.579v0h101.806c14.112 0 25.615 11.453 25.615 25.579v0 25.579l153.923 0.001v51.16h-460.44v-51.16l153.482-0.001z"></path>
</svg>
