<!-- Generated by IcoMoon.io -->
<svg version="1.1" xmlns="http://www.w3.org/2000/svg" width="512" height="512" viewBox="0 0 512 512">
<path d="M484.431 429.538c10.876 0 19.692 8.816 19.692 19.692s-8.816 19.692-19.692 19.692v0h-464.738c-10.876 0-19.692-8.816-19.692-19.692s8.816-19.692 19.692-19.692v0zM484.431 16c10.876 0 19.692 8.816 19.692 19.692v0 334.769c0 10.876-8.816 19.692-19.692 19.692v0h-464.738c-10.876 0-19.692-8.816-19.692-19.692v0-334.769c0-10.876 8.816-19.692 19.692-19.692v0zM464.738 55.385h-425.354v295.385h425.354v-295.385zM187.077 117.1c6.093-3.518 13.6-3.518 19.692 0v0l114.117 65.886c6.093 3.517 9.846 10.018 9.846 17.053s-3.753 13.536-9.846 17.053v0l-114.117 65.885c-6.092 3.518-13.6 3.519-19.692 0-6.093-3.517-9.846-10.019-9.846-17.053v0-131.771c0-7.036 3.754-13.537 9.846-17.053zM216.615 168.262v63.555l55.040-31.778-55.040-31.778z"></path>
</svg>
