
<svg width="16px" height="14px" viewBox="0 0 16 14" version="1.1" xmlns="http://www.w3.org/2000/svg" xmlns:xlink="http://www.w3.org/1999/xlink">
    <path d="M8.70547695,1 L7.29476439,1 C7.05380417,1 6.84351161,1.16210051 6.78655737,1.39867964 L4.6091532,10.1126774 L2.58946844,1.40744183 C2.5325142,1.1708627 2.32222165,1 2.07688033,1 L0.525972728,1 C0.477780684,1 0.433969735,1.00438109 0.390158786,1.01752438 C0.10976871,1.09200299 -0.0567128967,1.38115526 0.017765717,1.66154533 L3.26853815,13.7533673 C3.32987348,13.9811843 3.54016604,14.1432848 3.77674516,14.1432848 L5.17869554,14.1432848 C5.41527466,14.1432848 5.62556722,13.9855654 5.68690255,13.7533673 L8.00012067,5.12261032 L10.3133388,13.7533673 C10.3746741,13.9811843 10.5849667,14.1432848 10.8215458,14.1432848 L12.214734,14.1432848 C12.4513131,14.1432848 12.6616057,13.9855654 12.722941,13.7533673 L15.9824756,1.66154533 C15.9956189,1.61773438 16,1.56954234 16,1.52573139 C16,1.23657913 15.7634209,1 15.4742686,1 L13.9145988,1 C13.6692575,1 13.4589649,1.1708627 13.4020107,1.40744183 L11.3954692,10.1302018 L9.21368396,1.39867964 C9.15672973,1.16210051 8.94643717,1 8.70547695,1 L8.70547695,1 Z"></path>
</svg>