<!-- Generated by IcoMoon.io -->
<svg version="1.1" xmlns="http://www.w3.org/2000/svg" width="512" height="512" viewBox="0 0 512 512">
<path d="M487.381 431.55l-181.571-180.476 177.461-177.461c15.462-15.462 15.462-40.358 0-55.821-15.457-15.457-40.358-15.463-55.82 0l-176.371 177.466-173.362-173.362c-15.462-15.463-40.358-15.463-55.821 0-15.457 15.457-15.457 40.353 0.005 55.816l173.088 173.088-176.923 176.923c-15.453 15.452-15.463 40.358 0 55.82s40.368 15.452 55.821 0l176.919-176.919 180.75 180.75c15.462 15.462 40.368 15.452 55.82 0 15.467-15.467 15.328-40.502 0.005-55.825z"></path>
</svg>
