<!-- Generated by IcoMoon.io -->
<svg version="1.1" xmlns="http://www.w3.org/2000/svg" width="512" height="512" viewBox="0 0 512 512">
<path d="M256 0c39.692 0 72 33.493 72 74.666 0 8.981-1.594 17.728-4.526 25.952 3.003 1.408 6.048 2.645 8.979 4.246 14.452 7.84 27.875 18.080 39.857 30.379 31.156 32.448 48.26 75.296 48.26 120.757v0 160c0 11.776-9.216 21.334-20.572 21.334v0h-113.524c0.134 1.781 0.38 3.541 0.38 5.334 0 38.23-29.993 69.333-66.857 69.333s-66.857-31.104-66.857-69.334c0-1.792 0.247-3.552 0.381-5.334v0h-41.523c-11.355 0-20.572-9.558-20.572-21.334v0-160c0-63.648 33.779-121.568 88.169-151.147 2.9-1.59 5.956-2.826 8.939-4.224-2.941-8.234-4.536-16.981-4.536-25.962 0-41.173 32.308-74.666 72-74.666zM245.19 437.334h-50.38c-0.339 1.75-0.524 3.531-0.524 5.334 0 14.699 11.53 26.666 25.714 26.666s25.714-11.968 25.714-26.666c0-1.803-0.185-3.584-0.524-5.334v0zM272.056 129.099c-15.851-2.154-32.596-1.077-47.561 3.243-9.133 2.422-17.65 5.824-25.756 10.262-40.824 22.219-66.168 65.654-66.168 113.397v0 138.667h246.857v-138.667c0-34.090-12.847-66.25-36.164-90.549-8.969-9.206-19.070-16.917-29.942-22.816-8.156-4.458-16.673-7.872-25.375-10.176-5.204-1.504-10.522-2.613-15.892-3.36zM235.429 160c11.356 0 20.571 9.558 20.571 21.334s-9.216 21.334-20.572 21.334c-17.012 0-30.857 14.357-30.857 32 0 11.776-9.216 21.334-20.571 21.334s-20.572-9.558-20.572-21.334c0-41.173 32.308-74.666 72-74.666zM256 42.666c-17.012 0-30.857 14.358-30.857 32 0 4.597 0.936 9.078 2.715 13.184 0.853-0.16 1.749-0.213 2.613-0.352 2.633-0.427 5.276-0.79 7.951-1.078 1.8-0.203 3.6-0.406 5.421-0.544 2.469-0.181 4.947-0.256 7.436-0.331 1.584-0.053 3.137-0.213 4.721-0.213 1.81 0 3.589 0.181 5.4 0.234 2.139 0.075 4.279 0.128 6.408 0.288s4.238 0.394 6.346 0.64c2.243 0.256 4.464 0.555 6.685 0.906 1.091 0.181 2.212 0.246 3.291 0.448 1.789-4.106 2.726-8.587 2.726-13.184 0-17.642-13.844-32-30.857-32z"></path>
</svg>
