<!-- Generated by IcoMoon.io -->
<svg version="1.1" xmlns="http://www.w3.org/2000/svg" width="512" height="512" viewBox="0 0 512 512">
<path d="M493.159 103.81l-35.769-0.001v-37.027c0-8.477-6.202-15.68-14.587-16.934-1.464-0.22-36.311-5.282-78.272 2.354-46.779 8.511-84.087 29.502-109.389 61.234-25.304-31.732-62.612-52.722-109.389-61.234-41.964-7.633-76.811-2.574-78.272-2.354-8.385 1.256-14.587 8.459-14.587 16.934v37.027h-35.77c-9.455 0-17.123 7.668-17.123 17.124v322.672c0 5.545 2.683 10.745 7.204 13.958s10.316 4.038 15.55 2.213c1.285-0.445 129.6-44.236 225.28-0.593 4.515 2.060 9.699 2.060 14.214 0 95.413-43.52 224.001 0.151 225.28 0.593 1.835 0.639 3.735 0.954 5.628 0.954 3.51 0 6.984-1.079 9.922-3.165 4.521-3.213 7.204-8.413 7.204-13.958v-322.671c0-9.457-7.668-17.124-17.125-17.124zM34.248 420.693v-282.637h18.645v228.040c0 4.976 2.177 9.7 5.941 12.953s8.771 4.711 13.691 3.985c0.945-0.137 75.333-10.35 129.68 26.938-66.946-11.448-133.95 1.793-167.958 10.723zM238.018 394.529c-23.937-21.627-55.115-36.252-92.266-43.012-17.879-3.254-34.465-4.202-47.73-4.202-3.938 0-7.584 0.084-10.881 0.216v-265.026h-0.001c32.91-1.484 112.97 2.034 150.879 66.297v245.726zM272.264 148.804c37.773-63.988 117.957-67.666 150.879-66.256v264.983c-14.403-0.58-35.428-0.233-58.612 3.986-37.151 6.759-68.329 21.382-92.267 43.012v-245.724zM308.019 409.981c54.355-37.31 128.781-27.088 129.709-26.95 4.933 0.74 9.936-0.709 13.712-3.961 3.776-3.254 5.948-7.99 5.948-12.975v-228.037h18.645v282.636c-34.019-8.933-101.050-22.179-168.015-10.712z"></path>
</svg>
