<!-- Generated by IcoMoon.io -->
<svg version="1.1" xmlns="http://www.w3.org/2000/svg" width="512" height="512" viewBox="0 0 512 512">
<path d="M386 0c11.046 0 20 8.954 20 20v0 20h26c44.112 0 80 35.888 80 80v0 114c0 11.046-8.954 20-20 20s-20-8.954-20-20v0-114c0-22.056-17.944-40-40-40v0h-26v20c0 11.046-8.954 20-20 20s-20-8.954-20-20v0-20h-91v20c0 11.046-8.954 20-20 20s-20-8.954-20-20v0-20h-90v20c0 11.046-8.954 20-20 20s-20-8.954-20-20v0-20h-25c-22.056 0-40 17.944-40 40v0 312c0 22.056 17.944 40 40 40v0h153c11.046 0 20 8.954 20 20s-8.954 20-20 20v0h-153c-44.112 0-80-35.888-80-80v0-312c0-44.112 35.888-80 80-80v0h25v-20c0-11.046 8.954-20 20-20s20 8.954 20 20v0 20h90v-20c0-11.046 8.954-20 20-20s20 8.954 20 20v0 20h91v-20c0-11.046 8.954-20 20-20zM391 270c66.72 0 121 54.28 121 121s-54.28 121-121 121c-66.72 0-121-54.28-121-121s54.28-121 121-121zM391 310c-44.663 0-81 36.336-81 81s36.337 81 81 81c44.663 0 81-36.336 81-81s-36.337-81-81-81zM391 330c11.046 0 20 8.954 20 20v0 21h9c11.046 0 20 8.954 20 20s-8.954 20-20 20v0h-29c-11.046 0-20-8.954-20-20v0-41c0-11.046 8.954-20 20-20zM125 364c11.046 0 20 8.954 20 20s-8.954 20-20 20c-11.046 0-20-8.954-20-20s8.954-20 20-20zM212 364c11.046 0 20 8.954 20 20s-8.954 20-20 20c-11.046 0-20-8.954-20-20s8.954-20 20-20zM212 277c11.046 0 20 8.954 20 20s-8.954 20-20 20c-11.046 0-20-8.954-20-20s8.954-20 20-20zM125 277c11.046 0 20 8.954 20 20s-8.954 20-20 20c-11.046 0-20-8.954-20-20s8.954-20 20-20zM386 190c11.046 0 20 8.954 20 20s-8.954 20-20 20c-11.046 0-20-8.954-20-20s8.954-20 20-20zM299 190c11.046 0 20 8.954 20 20s-8.954 20-20 20c-11.046 0-20-8.954-20-20s8.954-20 20-20zM125 190c11.046 0 20 8.954 20 20s-8.954 20-20 20c-11.046 0-20-8.954-20-20s8.954-20 20-20zM212 190c11.046 0 20 8.954 20 20s-8.954 20-20 20c-11.046 0-20-8.954-20-20s8.954-20 20-20z"></path>
</svg>
