
<svg width="16px" height="14px" viewBox="0 0 16 14" version="1.1" xmlns="http://www.w3.org/2000/svg" xmlns:xlink="http://www.w3.org/1999/xlink">
    <path d="M15.6511157,5.57775298 L8.26313054,1.91892605 C8.09543343,1.83582863 7.89854745,1.83582863 7.73085034,1.91892605 L0.34366439,5.57775298 C0.137434669,5.679864 0.00786989547,5.89102645 0.0102221175,6.12113876 C0.0126390624,6.35125106 0.146551966,6.55968318 0.354853463,6.65749854 L3.23364215,8.00817951 L3.23364215,12.3039844 C3.23364215,12.4965963 3.32635161,12.6780191 3.48299863,12.7899099 C4.6818279,13.6522677 6.28426302,14.1270041 7.99699044,14.1270041 C9.71051707,14.1270041 11.3129522,13.6522677 12.5109822,12.7899099 C12.6672507,12.6773241 12.7599981,12.4965857 12.7603387,12.3039844 L12.7603387,8.00817951 L15.6399266,6.65749854 C15.8482281,6.55968318 15.982141,6.35125106 15.984558,6.12113876 C15.9869102,5.89102645 15.8573454,5.679864 15.6511157,5.57775298 Z M11.5615095,11.9850958 C10.6016468,12.5877073 9.32129717,12.928974 7.99699044,12.928974 C6.67268371,12.928974 5.39313327,12.5877073 4.43247141,11.9850958 L4.43247141,8.57162927 L7.74203941,10.1245128 C7.90333071,10.201315 8.09065016,10.201315 8.25194146,10.1245128 L11.5615095,8.57162927 L11.5615095,11.9850958 L11.5615095,11.9850958 Z M7.99699044,8.92008898 L1.98925737,6.10044254 L7.99699044,3.12494829 L14.0055227,6.10044254 L7.99699044,8.92008898 L7.99699044,8.92008898 Z M1.1988294,8.10328663 L1.1988294,11.4743945 C1.1986865,11.6885448 1.0843068,11.8863516 0.898775879,11.993303 C0.713244962,12.1002545 0.484749395,12.1001022 0.299361245,11.9929034 C0.113973095,11.8857047 -0.000142766815,11.6877455 -1.33801453e-07,11.4735953 L-1.33801453e-07,8.10248741 C0.000220698374,7.77143985 0.268766683,7.50325169 0.599814244,7.50347225 C0.930861805,7.50369309 1.19904997,7.77223907 1.1988294,8.10328663 Z"></path>
</svg>