<!-- Generated by IcoMoon.io -->
<svg version="1.1" xmlns="http://www.w3.org/2000/svg" width="512" height="512" viewBox="0 0 512 512">
<path d="M99 118.008v-98.008c0-11.046-8.954-20-20-20s-20 8.954-20 20v98.008c-32.563 0.181-59 26.72-59 59.325s26.437 59.144 59 59.326v255.341c0 11.046 8.954 20 20 20s20-8.954 20-20v-255.341c32.563-0.181 59-26.721 59-59.326s-26.437-59.143-59-59.325zM98.667 196.667h-39.334c-10.661 0-19.333-8.673-19.333-19.334 0-10.66 8.673-19.333 19.333-19.333h39.333c10.661 0 19.333 8.673 19.333 19.333 0.001 10.661-8.672 19.334-19.332 19.334zM512 177.333c0-32.605-26.437-59.144-59-59.325v-98.008c0-11.046-8.954-20-20-20s-20 8.954-20 20v98.008c-32.563 0.181-59 26.719-59 59.325s26.437 59.145 59 59.326v255.341c0 11.046 8.954 20 20 20s20-8.954 20-20v-255.341c32.563-0.181 59-26.721 59-59.326zM452.667 196.667h-39.334c-10.66 0-19.333-8.673-19.333-19.334 0-10.66 8.673-19.333 19.333-19.333h39.334c10.66 0 19.333 8.673 19.333 19.333 0 10.661-8.673 19.334-19.333 19.334zM276 314.675v-294.675c0-11.046-8.954-20-20-20s-20 8.954-20 20v294.675c-32.563 0.181-59 26.72-59 59.325s26.437 59.143 59 59.324v58.676c0 11.046 8.954 20 20 20s20-8.954 20-20v-58.675c32.563-0.181 59-26.719 59-59.325s-26.437-59.144-59-59.325zM275.667 393.333h-39.333c-10.661 0-19.334-8.673-19.334-19.333s8.673-19.333 19.333-19.333h39.333c10.66 0 19.333 8.673 19.333 19.333s-8.672 19.333-19.332 19.333v0z"></path>
</svg>
