<!-- Generated by IcoMoon.io -->
<svg version="1.1" xmlns="http://www.w3.org/2000/svg" width="546" height="512" viewBox="0 0 546 512">
<path d="M495.86 86.221h-79.063l-81-81c-3.004-3-7.071-4.688-11.317-4.688h-274.204c-27.767 0-50.275 22.466-50.275 50.275v377.034c0 27.767 22.466 50.275 50.275 50.275h445.584c27.766 0 50.275-22.466 50.275-50.275v-291.346c0-27.767-22.462-50.275-50.275-50.275zM371.543 86.221h-57.571l-53.692-53.688h57.571l53.692 53.688zM514.135 427.839c0 10.1-8.171 18.279-18.275 18.279h-445.584c-10.096 0-18.275-8.171-18.275-18.279v-377.030c0-10.096 8.171-18.275 18.275-18.275h164.75l81.005 81.005c3 3 7.067 4.688 11.313 4.688h188.513c10.1 0 18.279 8.166 18.279 18.275v291.338z"></path>
</svg>
