<?xml version="1.0" encoding="utf-8"?>
<!-- Generator: Adobe Illustrator 22.0.1, SVG Export Plug-In . SVG Version: 6.00 Build 0)  -->
<svg version="1.1" id="Layer_1" xmlns="http://www.w3.org/2000/svg" xmlns:xlink="http://www.w3.org/1999/xlink" x="0px" y="0px"
	 viewBox="0 0 822.7 652" style="enable-background:new 0 0 822.7 652;" xml:space="preserve">
<style type="text/css">
	.st0{fill: var(--bg-color-secondary, #FFFFFF);}
</style>
<g vector-effect="non-scaling-stroke">
	<path d="M112.7,617C69.8,617,35,582.2,35,539.3v-256c0-27.9,10.8-53.3,28.4-72.2v-70C63.4,82.6,111,35,169.6,35h147.1
		c28.4,0,55,11,75,31.1l29.8,29.8c10.6-2.6,21.5-4,32.5-4l227.6,0c58.5,0,106.1,47.6,106.1,106.1v341.3c0,42.8-34.8,77.7-77.7,77.7
		H112.7z"/>
	<path class="st0" d="M316.6,70c19,0,36.9,7.4,50.3,20.8l24.3,24.3c-4.8,2.7-9.6,5.5-14.1,8.9l-68.3,51.2
		c-7.3,5.5-16.4,8.5-25.6,8.5H141.1c-15.3,0-29.7,3.8-42.7,10v-52.7c0-39.2,31.9-71.1,71.1-71.1H316.6 M681.6,126.9
		c39.2,0,71.1,31.9,71.1,71.1v341.3c0,23.5-19.1,42.7-42.7,42.7H112.7C89.1,582,70,562.9,70,539.3v-256c0-39.2,31.9-71.1,71.1-71.1
		h142.2c15.3,0,30.4-5.1,42.7-14.2l68.3-51.2c17.1-12.8,38.3-19.9,59.7-19.9L681.6,126.9 M316.6,0H169.6
		C91.7,0,28.4,63.3,28.4,141.1v52.7v4.7C10.6,222.1,0,251.5,0,283.3v256C0,601.5,50.5,652,112.7,652H710
		c62.1,0,112.7-50.5,112.7-112.7V198c0-77.8-63.3-141.1-141.1-141.1h0l-227.6,0c-6.9,0-13.9,0.4-20.7,1.3l-16.9-16.9
		C389.8,14.7,354.3,0,316.6,0L316.6,0z"/>
</g>
</svg>
