<!-- Generated by IcoMoon.io -->
<svg version="1.1" xmlns="http://www.w3.org/2000/svg" width="273" height="512" viewBox="0 0 273 512">
<path d="M214.553 393.846c32.316 0 58.514 26.45 58.514 59.077s-26.197 59.077-58.514 59.077c-32.316 0-58.514-26.45-58.514-59.077s26.197-59.077 58.514-59.077zM58.514 315.077c32.316 0 58.514 26.45 58.514 59.077s-26.198 59.077-58.514 59.077c-32.316 0-58.514-26.45-58.514-59.077s26.198-59.077 58.514-59.077zM214.553 236.308c32.316 0 58.514 26.45 58.514 59.077s-26.197 59.077-58.514 59.077c-32.316 0-58.514-26.45-58.514-59.077s26.197-59.077 58.514-59.077zM58.514 157.538c32.316 0 58.514 26.45 58.514 59.077s-26.198 59.077-58.514 59.077c-32.316 0-58.514-26.45-58.514-59.077s26.198-59.077 58.514-59.077zM214.553 78.769c32.316 0 58.514 26.45 58.514 59.077s-26.197 59.077-58.514 59.077c-32.316 0-58.514-26.45-58.514-59.077s26.197-59.077 58.514-59.077zM58.514 0c32.316 0 58.514 26.45 58.514 59.077s-26.198 59.077-58.514 59.077c-32.316 0-58.514-26.45-58.514-59.077s26.198-59.077 58.514-59.077z"></path>
</svg>
