<!-- Generated by IcoMoon.io -->
<svg version="1.1" xmlns="http://www.w3.org/2000/svg" width="384" height="512" viewBox="0 0 384 512">
<path d="M144.256 0c57.477 0 104.242 70.249 104.238 156.596 0 65.291-26.756 121.314-64.643 144.788 0.53 1.091 0.889 2.273 0.889 3.567 0 0.406-0.172 0.748-0.23 1.13 8.292 2.304 23.213 8.55 50.905 24.366 1.688 0.963 2.987 2.499 3.653 4.336 1.376 4.928 4.355 12.355 11.575 15.567v0l18.285 7.275 105.77 5.026c4.546 0.219 8.055 4.078 7.84 8.627-0.211 4.55-4.039 7.985-8.627 7.844v0l-107.146-5.096c-0.909-0.043-1.813-0.238-2.659-0.577v0l-19.863-7.911c-9.31-4.137-16.179-11.976-19.817-22.37-17.801-10.004-38.69-20.261-45.555-21.7-18.573 12.047-39.138 27.334-43.415 33.236 0.132 0.202 0.347 0.483 0.709 0.717 0.686 0.445 4.674 2.483 16.807-1.325v0l20.74-7.45c2.549-0.889 5.333-0.522 7.524 1.017 2.195 1.548 3.501 4.055 3.501 6.74v0 114.994l42.987-2.019c17.373-0.012 31.189-13.829 31.189-30.811 0-4.553 3.688-8.245 8.245-8.245 4.553 0 8.241 3.692 8.241 8.245v0 16.74h98.904c4.553 0 8.243 3.692 8.243 8.245 0 4.55-3.685 8.241-8.243 8.241v0h-107.146c-1.571 0-3.037-0.44-4.281-1.201-8.651 9.376-21.033 15.263-34.764 15.263v0l-44.261 2.086c-3.306 14.324-16.097 25.060-31.411 25.060v0h-26.063c-15.216 0-27.879-10.366-31.31-24.725v0h-5.111c-11.365 0-20.605-9.243-20.605-20.604v0-8.241c0-2.596 0.534-5.057 1.412-7.341-5.778-3.653-9.653-10.058-9.653-17.388v0-8.241c0-4.655 1.61-8.909 4.226-12.363-2.616-3.458-4.226-7.707-4.226-12.363v0-8.245c0-4.655 1.61-8.904 4.226-12.363-2.616-3.454-4.226-7.704-4.226-12.363v0-8.241c0-11.361 9.24-20.604 20.605-20.604v0h12.362v-28.963c-46.608-16.351-80.238-79.825-80.238-152.363 0-86.347 46.764-156.596 104.242-156.596 4.452 0 8.92 0.487 13.318 1.317 4.226-0.783 8.495-1.317 12.857-1.317zM168.251 366.117l-10.028 3.599c-2.507 0.788-4.756 1.232-7.037 1.719-0.663 2.842-1.934 5.435-3.645 7.692 2.616 3.454 4.226 7.707 4.226 12.363v0 8.241c0 7.329-3.871 13.735-9.653 17.388 0.877 2.288 1.411 4.748 1.411 7.341v0 8.241c0 2.592-0.534 5.053-1.411 7.341 5.781 3.653 9.653 10.055 9.653 17.384v0 8.245c0 11.361-9.236 20.604-20.605 20.604v0h-18.659c2.678 4.943 7.868 8.241 13.871 8.241v0h26.059c8.725 0 15.817-7.096 15.817-15.825 0-0.117 0.066-0.214 0.070-0.336-0.004-0.113-0.070-0.214-0.070-0.327v0-111.914zM131.163 453.306h-41.213c-2.269 0-4.121 1.848-4.121 4.121v0 8.245c0 2.273 1.852 4.121 4.121 4.121v0h41.213c2.269 0 4.121-1.848 4.121-4.121v0-8.245c0-2.273-1.852-4.121-4.121-4.121v0zM122.922 420.339h-41.213c-2.269 0-4.121 1.848-4.121 4.121v0 8.241c0 2.277 1.852 4.121 4.121 4.121v0h41.213c2.269 0 4.121-1.844 4.121-4.121v0-8.241c0-2.273-1.852-4.121-4.121-4.121v0zM131.16 387.373h-49.451c-2.269 0-4.121 1.848-4.121 4.121v0 8.241c0 2.277 1.852 4.121 4.121 4.121v0h49.454c2.269 0 4.121-1.844 4.121-4.121v0-8.241c0-2.273-1.852-4.121-4.125-4.121v0zM118.653 354.406h-36.939c-2.273 0-4.125 1.844-4.125 4.121v0 8.241c0 2.277 1.852 4.121 4.121 4.121v0h49.099c-1.599-0.635-3.185-1.279-4.522-2.261-4.951-3.634-7.037-8.94-7.423-12.897-0.097-0.406-0.168-0.854-0.21-1.325v0zM161.445 313.193h-50.885v24.729h18.332c6.358-6.035 16.499-14.004 32.553-24.729v0zM25.721 287.474c3.221-3.221 8.436-3.221 11.657 0 3.221 3.216 3.221 8.433 0 11.653v0l-5.825 5.829 5.825 5.825c3.221 3.221 3.221 8.437 0 11.657-1.606 1.606-3.719 2.413-5.825 2.413-2.109 0-4.218-0.807-5.828-2.413v0l-5.828-5.829-5.829 5.829c-1.61 1.606-3.72 2.413-5.829 2.413-2.106 0-4.218-0.807-5.824-2.413-3.22-3.221-3.22-8.437 0-11.657v0l5.824-5.825-5.824-5.829c-3.22-3.221-3.22-8.437 0-11.653 3.216-3.221 8.433-3.221 11.653 0v0l5.828 5.825zM144.248 16.483c-48.382 0-87.746 62.854-87.746 140.113 0 77.263 39.368 140.113 87.746 140.113 48.394 0 87.758-62.854 87.758-140.113s-39.364-140.113-87.758-140.113zM87.464 25.454c-33.318 19.895-57.146 71.091-57.146 131.143 0 59.013 23.376 111.022 57.224 131.216-28.566-27.957-47.525-76.288-47.525-131.216 0-54.877 18.924-103.169 47.447-131.143zM137.702 84.835c3.216-3.221 8.433-3.221 11.653 0 3.216 3.216 3.216 8.436 0 11.653v0l-45.334 45.334c-1.61 1.606-3.719 2.413-5.829 2.413-2.106 0-4.219-0.807-5.825-2.413-3.221-3.22-3.221-8.436 0-11.657v0zM121.215 60.109c3.221-3.221 8.437-3.221 11.653 0 3.22 3.221 3.22 8.437 0 11.653v0l-20.605 20.605c-1.606 1.61-3.719 2.417-5.825 2.417-2.113 0-4.219-0.807-5.829-2.417-3.221-3.216-3.221-8.433 0-11.653v0zM281.226 48.456c3.221-3.221 8.437-3.221 11.657 0 3.216 3.216 3.216 8.432 0 11.653v0l-5.829 5.828 5.825 5.825c3.221 3.221 3.221 8.436 0 11.657-1.61 1.606-3.719 2.413-5.829 2.413-2.106 0-4.219-0.807-5.829-2.413v0l-5.825-5.829-5.829 5.829c-1.61 1.606-3.719 2.413-5.829 2.413s-4.219-0.807-5.829-2.413c-3.216-3.221-3.216-8.436 0.008-11.657v0l5.825-5.825-5.825-5.828c-3.22-3.221-3.22-8.437 0-11.653 3.216-3.221 8.433-3.221 11.653 0v0l5.829 5.825z"></path>
</svg>
