<svg width="16px" height="14px" viewBox="0 0 16 14" version="1.1" xmlns="http://www.w3.org/2000/svg" xmlns:xlink="http://www.w3.org/1999/xlink">
    <path d="M9.00001089,1 C12.8598625,1 16,4.1406601 16,8.00001814 C16,11.8593762 12.8598625,15 9.00001089,15 C6.83006913,15 4.81834776,14.0175893 3.48047103,12.3056738 L3.48047103,12.3056738 L4.2685537,11.6904433 C5.41554987,13.1582349 7.14015205,14.0000254 9.00001089,14.0000254 C12.3086168,14.0000254 15.0000181,11.3086241 15.0000181,8.00001814 C15.0000181,4.69141219 12.3085878,2.00001089 9.00001089,2.00001089 C6.03278355,2.00001089 3.56866801,4.16687533 3.09031989,7 L3.09031989,7 L5,7 L2.5,9.5 L0,7 L2.07991581,7 C2.56775715,3.61377171 5.48055087,1 9.00001089,1 Z M8.99899479,5.00001452 L8.99754323,8.29102753 L11.3535173,10.6465081 L10.6464899,11.3535355 L8.14405313,8.85159218 C8.05028215,8.75785023 7.99756137,8.63089652 7.99756137,8.49807849 L7.99756137,8.49807849 L7.99901294,5.00001452 L8.99899479,5.00001452 Z"></path>
</svg>