<!-- Generated by IcoMoon.io -->
<svg version="1.1" xmlns="http://www.w3.org/2000/svg" width="512" height="512" viewBox="0 0 512 512">
<path d="M370.91 0c-76.74 0-140.69 63.95-140.69 140.69 0 30.696 10.232 56.275 25.579 79.298l-104.879 104.878-43.485-43.485-35.813 35.813 43.486 43.485-35.813 35.813-43.485-43.486-35.813 35.813 43.486 43.486-43.486 43.485 35.813 35.813 255.8-255.801c23.022 15.348 51.161 25.579 79.298 25.579 76.74 0 140.69-63.95 140.69-140.69s-63.95-140.69-140.69-140.69zM370.91 230.22c-48.601 0-89.531-40.928-89.531-89.53s40.928-89.531 89.531-89.531c48.603 0 89.531 40.929 89.531 89.531s-40.928 89.531-89.531 89.531z"></path>
</svg>
