<!-- Generated by IcoMoon.io -->
<svg version="1.1" xmlns="http://www.w3.org/2000/svg" width="512" height="512" viewBox="0 0 512 512">
<path d="M288 45.867c35.286 0 64 28.715 64 64v0 15.989c0 15.925-3.936 53.077-13.163 81.077v0h93.163c26.464 0 48 21.536 48 48 0 12.277-4.64 23.498-12.256 32 7.616 8.502 12.256 19.723 12.256 32s-4.64 23.498-12.256 32c7.616 8.502 12.256 19.723 12.256 32 0 22.101-15.019 40.757-35.37 46.315 2.176 5.472 3.37 11.445 3.37 17.685 0 26.464-21.536 48-48 48v0h-134.038c-18.954 0-37.685-3.040-55.659-9.034v0l-54.976-18.325c-7.733 16.171-24.245 27.36-43.328 27.36v0h-96c-8.832 0-16-7.168-16-16v0-288c0-8.832 7.168-16 16-16v0h96c20.267 0 37.621 12.63 44.65 30.422 40.128-9.792 78.901-63.669 91.115-112.501v0l8.714-34.87c1.781-7.126 8.181-12.117 15.52-12.117v0zM112 206.934h-80v256h80c8.822 0 16-7.178 16-16v0-224c0-8.822-7.178-16-16-16v0zM288 77.867h-3.51l-5.685 22.752c-7.755 31.029-25.312 64.715-46.965 90.122-22.176 26.016-46.742 41.91-71.84 46.678v0 197.984l60.416 20.139c14.709 4.906 30.037 7.392 45.546 7.392v0h134.038c8.822 0 16-7.178 16-16s-7.178-16-16-16c-8.832 0-16-7.168-16-16s7.168-16 16-16v0h32c8.822 0 16-7.178 16-16s-7.178-16-16-16v0h-32c-8.832 0-16-7.168-16-16s7.168-16 16-16v0h32c8.822 0 16-7.178 16-16s-7.178-16-16-16v0h-32c-8.832 0-16-7.168-16-16s7.168-16 16-16v0h32c8.822 0 16-7.178 16-16s-7.178-16-16-16v0h-160c-8.832 0-16-7.168-16-16s7.168-16 16-16v0h32.683c8.598-18.389 15.317-59.594 15.317-81.078v0-15.99c0-17.642-14.358-32-32-32v0zM80 398.933c8.837 0 16 7.163 16 16s-7.163 16-16 16c-8.837 0-16-7.163-16-16s7.163-16 16-16z"></path>
</svg>
