<!-- Generated by IcoMoon.io -->
<svg version="1.1" xmlns="http://www.w3.org/2000/svg" width="512" height="512" viewBox="0 0 512 512">
<path d="M142.524 202.928c45.615-45.621 119.839-45.618 165.461 0v0l-33.321 33.315c-27.243-27.246-71.577-27.246-98.826 0v0l-108.311 108.311c-27.239 27.246-27.239 71.586 0.003 98.835 27.243 27.243 71.573 27.249 98.823 0.015v0l72.192-72.214 33.321 33.315-72.195 72.214-5.392 5.062c-22.025 19.425-49.679 29.139-77.329 29.139-29.966 0-59.926-11.402-82.74-34.213-45.609-45.622-45.609-119.849-0.003-165.467v0zM316.065 29.64c45.887-40.99 116.599-39.462 160.642 4.579 45.609 45.605 45.609 119.83 0.003 165.454v0l-108.327 108.318c-22.088 22.098-51.47 34.269-82.721 34.269s-60.632-12.172-82.731-34.269v0l33.317-33.315c13.196 13.199 30.745 20.468 49.409 20.468s36.211-7.269 49.406-20.467v0l108.324-108.318c27.24-27.249 27.243-71.582 0-98.823-27.24-27.239-71.551-27.255-98.81-0.044v0l-72.185 72.214-33.317-33.311 72.18-72.192z"></path>
</svg>
