<!-- Generated by IcoMoon.io -->
<svg version="1.1" xmlns="http://www.w3.org/2000/svg" width="512" height="512" viewBox="0 0 512 512">
<path d="M223.963 0.001c66.168 0 120 52.695 120 117.466v0 70.534h24.037c44.112 0 80 35.888 80 80v0 40c0 11.046-8.954 20-20 20s-20-8.954-20-20v0-40c0-22.056-17.944-40-40-40v0h-288c-22.056 0-40 17.944-40 40v0 164c0 22.056 17.944 40 40 40v0h158c11.046 0 20 8.954 20 20s-8.954 20-20 20v0h-158c-44.112 0-80-35.888-80-80v0-164c0-44.112 35.888-80 80-80v0h23.963v-70.534c0-64.771 53.832-117.466 120-117.466zM475.739 330.359c6.427-8.982 18.922-11.051 27.904-4.62 8.981 6.429 11.049 18.923 4.62 27.904v0l-98.981 138.26c-0.217 0.302-0.441 0.597-0.673 0.887-8.987 11.182-22.352 18.143-36.666 19.097-1.132 0.076-2.264 0.113-3.393 0.113-13.14 0-25.911-5.067-35.478-14.176-0.061-0.057-0.12-0.115-0.18-0.173v0l-63.82-62.281c-7.906-7.715-8.060-20.377-0.345-28.282s20.376-8.061 28.282-0.345v0l63.708 62.171c3.143 2.949 6.713 3.184 8.567 3.061 1.808-0.12 5.182-0.794 7.874-3.916v0zM338 326.001c11.046 0 20 8.954 20 20s-8.954 20-20 20c-11.046 0-20-8.954-20-20s8.954-20 20-20zM262 326.001c11.046 0 20 8.954 20 20s-8.954 20-20 20c-11.046 0-20-8.954-20-20s8.954-20 20-20zM112 326.001c11.046 0 20 8.954 20 20s-8.954 20-20 20c-11.046 0-20-8.954-20-20s8.954-20 20-20zM187 326.001c11.046 0 20 8.954 20 20s-8.954 20-20 20c-11.046 0-20-8.954-20-20s8.954-20 20-20zM223.963 40.001c-44.112 0-80 34.751-80 77.466v0 70.534h160v-70.534c0-42.715-35.888-77.466-80-77.466z"></path>
</svg>
