<!-- Generated by IcoMoon.io -->
<svg version="1.1" xmlns="http://www.w3.org/2000/svg" width="480" height="512" viewBox="0 0 480 512">
<path d="M421.751 195.234l-315.565-182.189c-15-8.659-29.742-13.045-43.845-13.045-36.751 0-61.439 29.685-61.439 73.854v364.302c0 44.178 24.688 73.844 61.439 73.844 14.094 0 28.855-4.396 43.855-13.054l315.555-182.16c26.662-15.391 41.347-36.97 41.347-60.781 0-23.801-14.685-45.39-41.347-60.771zM404.148 286.3l-315.565 182.17c-9.44 5.454-18.518 8.334-26.252 8.334-23.668 0-26.223-27.015-26.223-38.639v-364.311c0-11.624 2.556-38.639 26.233-38.639 7.733 0 16.811 2.88 26.252 8.325l315.555 182.189c15.086 8.706 23.725 19.748 23.725 30.285s-8.64 21.57-23.725 30.286z"></path>
</svg>
