<!-- Generated by IcoMoon.io -->
<svg version="1.1" xmlns="http://www.w3.org/2000/svg" width="512" height="512" viewBox="0 0 512 512">
<path  d="M409.412 0c27.974 0 50.733 22.759 50.733 50.733v0 19.82c19.682 6.981 33.822 25.778 33.822 47.824v0 141.090c0 13.551-5.277 26.291-14.861 35.874v0l-199.549 199.549c-9.89 9.891-22.882 14.836-35.873 14.836s-25.983-4.945-35.873-14.834v0l-141.093-141.090c-9.583-9.582-14.861-22.322-14.861-35.874 0-3.918 0.455-7.767 1.314-11.493v0l-20.276-20.276c-9.583-9.582-14.861-22.322-14.861-35.874s5.277-26.292 14.861-35.874v0l199.547-199.548c9.582-9.583 22.321-14.861 35.874-14.861v0zM443.233 101.464h-141.094c-4.518 0-8.764 1.76-11.959 4.953v0l-199.548 199.549c-3.194 3.195-4.954 7.441-4.954 11.959s1.76 8.765 4.954 11.959v0l141.094 141.090c6.593 6.592 17.32 6.594 23.915 0v0l199.549-199.549c3.193-3.195 4.954-7.442 4.954-11.959v0-141.090c0-9.325-7.587-16.91-16.911-16.91v0zM409.411 33.822h-141.094c-4.518 0-8.764 1.76-11.959 4.953v0l-199.548 199.548c-3.194 3.196-4.954 7.441-4.954 11.958s1.76 8.765 4.954 11.959v0l14.861 14.858 194.594-194.595c9.582-9.583 22.322-14.861 35.874-14.861v0h124.183v-16.91c0-9.325-7.586-16.91-16.911-16.91v0zM375.59 135.287c27.974 0 50.733 22.758 50.733 50.732s-22.759 50.733-50.733 50.733c-27.974 0-50.733-22.758-50.733-50.733s22.759-50.733 50.733-50.733zM375.59 169.11c-9.325 0-16.911 7.586-16.911 16.911s7.586 16.911 16.911 16.911c9.325 0 16.911-7.586 16.911-16.911s-7.586-16.911-16.911-16.911z"></path>
</svg>
